<?xml version="1.0" standalone="no"?>
<!DOCTYPE svg PUBLIC "-//W3C//DTD SVG 20010904//EN"
 "http://www.w3.org/TR/2001/REC-SVG-20010904/DTD/svg10.dtd">
<svg version="1.0" xmlns="http://www.w3.org/2000/svg"
 width="597.000000pt" height="597.000000pt" viewBox="0 0 597.000000 597.000000"
 preserveAspectRatio="xMidYMid meet">
<metadata>
Created by potrace 1.11, written by Peter Selinger 2001-2013
</metadata>
<g transform="translate(0.000000,597.000000) scale(0.100000,-0.100000)"
fill="#000000" stroke="none">
<path d="M3689 5906 c-36 -13 -80 -34 -98 -47 -59 -43 -151 -162 -192 -246
-50 -104 -138 -371 -146 -440 -3 -29 -10 -53 -14 -53 -5 0 -9 6 -9 14 0 8 -14
31 -31 52 -73 93 -142 184 -186 247 -26 38 -94 122 -150 187 -55 65 -115 138
-131 162 -17 24 -46 62 -65 85 -34 41 -35 41 -58 25 -56 -38 -55 -62 5 -161
20 -32 36 -63 36 -68 0 -23 174 -266 304 -424 8 -9 20 -21 28 -25 19 -12 65
-75 69 -96 2 -9 42 -51 89 -94 92 -84 110 -106 92 -112 -7 -2 -12 -10 -12 -18
0 -9 12 -14 36 -14 19 0 45 -5 56 -11 16 -8 19 -8 13 1 -5 8 -2 10 11 6 14 -4
22 1 31 19 9 20 9 25 0 23 -14 -3 -87 43 -87 54 0 10 31 -2 54 -21 14 -12 20
-13 23 -3 4 9 11 9 31 -3 40 -21 119 -45 151 -45 38 0 91 -11 91 -19 0 -3 -15
-14 -33 -24 l-32 -19 24 -19 c13 -10 27 -16 32 -13 5 3 12 -8 15 -25 4 -17 10
-31 15 -31 4 0 18 -20 30 -45 12 -25 28 -45 35 -45 20 0 32 24 23 45 -10 26
-11 75 -1 75 14 0 9 45 -6 56 -13 9 -12 12 2 17 27 10 53 -9 60 -44 3 -18 9
-29 13 -26 6 7 -15 86 -28 100 -4 5 -16 4 -27 -2 -15 -8 -23 -8 -27 0 -4 6
-13 8 -20 5 -8 -3 -17 4 -20 15 -4 10 -10 17 -15 14 -5 -3 -13 2 -17 10 -5 9
-25 23 -44 33 -31 16 -36 24 -56 102 -17 64 -22 108 -20 175 2 85 5 96 52 195
51 110 208 363 257 415 33 36 36 49 8 40 -11 -4 -20 -2 -20 4 0 6 12 14 26 17
37 10 13 20 -49 21 -30 1 -79 -8 -118 -21z m-564 -806 c3 -5 2 -10 -4 -10 -5
0 -13 5 -16 10 -3 6 -2 10 4 10 5 0 13 -4 16 -10z m15 -30 c0 -5 -2 -10 -4
-10 -3 0 -8 5 -11 10 -3 6 -1 10 4 10 6 0 11 -4 11 -10z m40 -12 c0 -7 14 -21
31 -31 18 -10 29 -20 27 -23 -8 -7 -64 28 -77 48 -9 14 -8 18 4 18 8 0 15 -6
15 -12z"/>
<path d="M3975 5791 c-42 -25 -60 -49 -75 -96 -7 -22 -16 -44 -20 -50 -4 -5
-24 -44 -46 -85 -21 -41 -48 -91 -61 -110 -43 -67 -51 -111 -55 -283 -3 -151
-1 -167 16 -186 11 -12 22 -19 24 -16 3 3 16 -2 30 -11 21 -14 26 -14 39 -1
13 12 13 16 -1 30 -13 12 -13 17 -2 26 7 6 16 8 20 3 4 -4 12 1 17 11 14 24
32 22 24 -4 -5 -15 1 -27 22 -45 15 -13 32 -24 37 -24 4 0 5 -7 2 -16 -7 -17
41 -67 55 -58 5 3 7 9 4 14 -10 16 18 61 33 55 25 -9 27 7 20 117 -4 56 -12
177 -17 268 -5 91 -12 185 -16 210 -4 25 -2 79 5 120 6 41 14 90 17 109 5 29
3 33 -11 28 -10 -4 -15 -3 -11 3 10 16 -18 11 -50 -9z m-105 -727 c0 -8 -4
-12 -10 -9 -5 3 -10 13 -10 21 0 8 5 12 10 9 6 -3 10 -13 10 -21z"/>
<path d="M4815 5499 c-164 -16 -343 -106 -456 -228 -101 -110 -149 -210 -183
-381 -36 -186 -64 -273 -83 -265 -9 3 -22 0 -31 -7 -14 -12 -14 -10 -2 12 12
24 12 24 -6 7 -18 -17 -18 -18 8 -42 18 -17 28 -21 32 -12 3 7 3 2 0 -11 -3
-14 0 -24 9 -28 13 -5 13 -9 -1 -34 -11 -20 -19 -25 -25 -17 -4 7 -7 -2 -5
-22 5 -52 -22 -47 -84 17 -29 31 -47 52 -40 48 6 -4 12 -5 12 -1 0 8 -44 23
-53 18 -4 -3 -4 -10 2 -16 9 -12 11 -18 11 -36 0 -15 64 -72 76 -67 6 2 17 0
25 -6 11 -8 9 -8 -6 -4 -12 4 -5 -7 20 -28 30 -26 43 -32 52 -24 16 13 26 5
30 -24 2 -12 14 -35 26 -52 28 -37 40 -66 27 -66 -5 0 -7 -7 -4 -15 4 -10 11
-12 18 -7 6 5 19 12 29 15 16 6 16 4 -3 -21 -12 -15 -26 -28 -31 -28 -5 -1
-12 -2 -15 -3 -3 0 9 -13 27 -28 18 -16 37 -27 41 -26 7 3 12 -12 9 -29 0 -5
4 -8 9 -8 6 0 10 -4 10 -10 0 -16 -32 -11 -47 8 -13 15 -14 15 -9 0 3 -9 0
-19 -7 -21 -9 -3 -8 -9 4 -23 19 -23 19 -66 0 -72 -11 -4 -12 3 -7 30 5 30 3
36 -19 46 -20 9 -26 8 -34 -6 -7 -11 -11 -12 -11 -4 0 7 -4 10 -10 7 -5 -3
-10 -2 -10 4 0 6 15 15 33 20 l32 10 -30 -2 c-20 -1 -33 -9 -40 -24 -5 -13
-16 -25 -23 -28 -7 -2 -10 0 -7 5 3 6 -5 10 -19 10 -13 0 -27 -6 -30 -12 -3
-7 -4 -2 -3 12 1 18 -3 26 -18 28 -23 3 -53 -14 -42 -24 3 -4 13 -1 22 6 18
15 30 8 22 -13 -3 -9 -22 -14 -54 -14 -26 -1 -40 1 -30 4 13 3 16 10 11 25 -4
15 -3 19 7 14 8 -4 5 0 -6 10 -20 16 -20 16 1 12 29 -7 62 11 43 23 -11 7 -11
11 -2 17 17 11 10 121 -8 133 -9 5 -18 4 -24 -5 -14 -19 -55 -30 -55 -15 0 8
-5 7 -17 -2 -14 -12 -16 -12 -11 1 2 8 -5 22 -16 31 -20 16 -22 16 -48 -13
-27 -30 -29 -48 -5 -48 7 0 6 4 -3 11 -12 8 -10 9 8 4 22 -6 27 1 22 35 -4 32
18 -6 24 -42 6 -31 4 -38 -9 -38 -8 0 -15 8 -15 17 0 14 -5 12 -26 -8 -16 -15
-23 -18 -19 -7 9 22 -10 31 -36 17 -12 -6 -19 -7 -15 -1 6 10 -38 22 -81 22
-18 0 -23 -4 -20 -14 9 -22 -5 -28 -25 -9 -10 9 -18 13 -18 9 0 -3 -11 1 -25
10 -14 9 -28 14 -32 10 -3 -3 -17 10 -30 29 -13 19 -31 35 -39 35 -8 0 -13 4
-10 8 8 14 -46 39 -114 52 -44 9 -88 10 -135 5 -39 -5 -73 -8 -77 -7 -5 1 -8
-2 -8 -7 0 -5 -8 -8 -17 -7 -10 0 -17 -4 -16 -11 2 -7 -4 -10 -13 -6 -8 3 -21
-2 -28 -12 -11 -15 -49 -23 -133 -26 -15 -1 -20 -6 -16 -16 5 -13 2 -13 -15
-4 -17 9 -22 9 -22 0 0 -8 -4 -8 -15 1 -13 11 -14 10 -10 -1 3 -8 21 -25 41
-38 22 -16 31 -27 23 -31 -7 -5 -4 -12 11 -23 12 -8 17 -18 12 -21 -6 -3 -12
-2 -14 4 -3 9 -3 -135 0 -173 1 -10 7 -15 13 -11 8 4 8 1 1 -13 -10 -18 -19
-58 -21 -93 -1 -13 -2 -13 -11 0 -9 13 -10 13 -10 -1 0 -9 -21 -24 -55 -37
-30 -12 -79 -31 -108 -42 -30 -11 -62 -20 -73 -19 -42 4 -54 -1 -51 -22 1 -12
-4 -24 -12 -27 -10 -3 -12 0 -8 12 5 14 2 17 -16 14 -12 -2 -22 -10 -23 -18 0
-8 -3 -24 -7 -35 -3 -11 -8 -31 -11 -45 -2 -14 -8 -35 -13 -48 -5 -13 -5 -55
-1 -95 12 -100 3 -206 -19 -235 -10 -13 -34 -32 -53 -42 -50 -26 -147 -70
-156 -70 -5 0 -36 -15 -71 -32 -42 -22 -63 -39 -63 -51 0 -10 -4 -16 -9 -12
-12 6 -61 -15 -61 -27 0 -4 -32 -5 -70 -2 -68 7 -139 -6 -164 -28 -6 -4 -17
-8 -26 -8 -9 0 -26 -9 -38 -20 -12 -12 -22 -18 -22 -14 0 4 -11 -3 -25 -16
-14 -13 -25 -29 -25 -35 0 -6 -9 -28 -20 -50 -24 -47 -24 -46 -5 -39 11 5 13
-1 8 -30 -3 -23 0 -48 11 -70 9 -19 16 -40 16 -48 0 -24 43 -52 75 -50 16 2
48 -6 70 -18 44 -23 45 -23 44 -12 -5 27 3 52 16 52 23 0 65 29 112 78 41 42
42 42 54 21 14 -27 6 -82 -18 -118 -9 -14 -16 -31 -15 -37 1 -7 -10 -14 -25
-17 -16 -3 -46 -11 -68 -17 -22 -7 -77 -13 -121 -15 -100 -3 -146 -13 -138
-27 4 -6 2 -8 -3 -5 -6 4 -30 0 -53 -8 -24 -8 -48 -15 -54 -14 -49 6 -98 -3
-113 -21 -12 -14 -20 -16 -29 -9 -15 13 -37 2 -28 -13 4 -6 -3 -5 -16 2 -31
17 -85 4 -99 -23 l-12 -22 5 23 c2 12 0 20 -5 16 -5 -3 -9 -11 -9 -18 0 -7 -8
-20 -18 -29 -21 -19 -62 -23 -62 -6 0 5 -4 7 -10 4 -5 -3 -7 0 -4 8 3 8 -2 20
-11 27 -15 13 -16 11 -12 -18 3 -18 0 -33 -6 -36 -7 -2 -2 -8 11 -11 12 -4 22
-12 22 -17 0 -6 7 -8 14 -5 10 4 13 1 9 -9 -4 -11 -9 -12 -18 -4 -8 7 -15 7
-19 1 -3 -5 0 -12 6 -14 10 -4 10 -8 -1 -15 -11 -8 -11 -10 0 -14 8 -3 11 -8
8 -12 -4 -4 -13 -1 -21 6 -7 7 -19 14 -26 15 -16 4 -16 -14 1 -21 6 -3 -1 -3
-18 0 -16 3 -27 2 -22 -2 4 -4 0 -16 -10 -26 -18 -20 -34 -24 -30 -7 1 6 -5
14 -13 16 -9 3 -11 1 -5 -4 17 -14 18 -70 1 -70 -8 0 -12 6 -8 15 3 10 1 13
-6 8 -8 -5 -10 -2 -6 8 4 11 0 16 -13 16 -30 0 -32 -8 -12 -50 23 -47 24 -56
4 -36 -8 8 -15 24 -15 35 0 14 -5 19 -16 14 -11 -4 -12 -8 -4 -13 7 -4 8 -10
3 -13 -6 -4 -10 -27 -11 -53 0 -27 3 -42 8 -35 5 9 10 10 14 2 4 -6 4 -15 1
-21 -4 -6 5 -10 19 -10 14 0 26 5 26 11 0 5 -4 7 -10 4 -5 -3 -10 -1 -10 5 0
12 30 6 60 -11 12 -7 10 -8 -6 -9 -12 0 -24 -7 -28 -15 -8 -21 2 -19 67 15 31
16 57 27 57 24 0 -8 -24 -30 -40 -37 -13 -5 -13 -6 0 -6 29 -2 88 62 96 104
10 51 11 55 14 58 8 10 7 43 -3 50 -8 5 -5 7 8 5 14 -2 20 2 19 14 -1 10 2 15
8 12 5 -3 6 -14 3 -25 -4 -11 -2 -19 4 -19 6 0 11 -9 11 -20 0 -11 5 -20 11
-20 7 0 9 -10 5 -24 -5 -20 -1 -26 16 -32 35 -11 88 -11 88 0 0 5 6 3 12 -5
22 -26 70 -52 77 -41 3 5 25 19 48 31 23 11 45 25 48 31 4 6 11 8 16 4 6 -3
18 1 28 10 16 15 19 14 41 -9 13 -14 20 -28 17 -32 -4 -3 -1 -13 5 -21 10 -11
6 -19 -22 -43 -19 -16 -30 -29 -25 -29 6 0 -5 -7 -24 -16 -19 -8 -39 -13 -45
-12 -6 1 -21 -3 -33 -10 -12 -7 -56 -14 -98 -16 -63 -3 -80 -7 -103 -27 -14
-13 -20 -16 -13 -6 11 14 11 17 0 17 -20 0 -34 -12 -48 -38 -7 -12 -17 -20
-22 -16 -6 3 -18 -4 -27 -17 -20 -30 -24 -49 -9 -49 7 0 1 -9 -13 -20 -21 -17
-23 -21 -10 -30 8 -5 10 -10 5 -10 -18 0 -12 -40 7 -46 10 -3 16 -10 12 -15
-4 -6 -11 -6 -19 1 -11 9 -14 7 -12 -9 1 -11 7 -23 14 -25 19 -8 16 -24 -4
-22 -18 1 -21 -9 -24 -92 -1 -30 -2 -32 -15 -15 -13 17 -13 17 -14 -2 0 -15
-7 -21 -27 -23 -22 -1 -24 0 -13 8 22 14 7 12 -21 -2 -13 -7 -24 -19 -23 -25
1 -7 2 -19 3 -27 0 -8 15 -19 31 -25 22 -7 32 -18 36 -41 4 -16 13 -30 20 -30
9 0 14 -12 14 -35 0 -45 -13 -45 -35 1 -31 65 -111 69 -165 8 -16 -19 -30 -39
-30 -43 0 -5 -7 -12 -16 -15 -10 -4 -13 -2 -8 7 6 9 3 8 -8 -1 -15 -12 -16 -7
-15 48 2 43 6 59 14 56 7 -3 15 -1 19 5 10 17 -1 19 -28 5 -15 -8 -28 -13 -30
-11 -2 2 -9 -4 -17 -13 -13 -13 -12 -14 13 -8 24 6 27 4 22 -9 -3 -9 -6 -23
-6 -31 0 -8 -7 -14 -15 -14 -10 0 -15 -10 -15 -29 0 -16 -5 -31 -12 -33 -9 -3
-9 -12 0 -38 15 -41 15 -73 2 -65 -15 9 -12 -4 4 -20 12 -12 15 -11 20 7 7 30
16 18 18 -25 1 -42 38 -83 57 -64 6 6 11 7 11 2 0 -5 11 7 25 25 20 27 32 34
54 32 22 -3 36 6 69 42 23 25 42 50 42 56 0 5 6 9 13 7 6 -1 11 6 9 15 -1 9 2
19 8 23 11 7 13 -3 10 -54 -1 -19 4 -37 12 -42 10 -7 9 -9 -3 -9 -11 0 -18
-11 -21 -29 -2 -17 -1 -28 3 -25 4 2 10 0 14 -6 6 -9 -7 -14 -27 -11 -12 2 -9
-6 10 -25 16 -17 16 -17 0 -11 -10 3 -20 2 -23 -3 -4 -6 -11 -10 -16 -10 -6 0
-7 4 -4 10 3 6 -1 7 -10 3 -12 -4 -13 -8 -5 -13 6 -4 12 -11 12 -16 -1 -5 6
-8 14 -6 8 2 14 -2 14 -8 0 -15 -26 -12 -39 4 -18 22 -63 -2 -58 -31 2 -13 -2
-24 -10 -27 -20 -8 -25 -7 -19 2 3 5 -3 16 -14 24 -16 14 -19 14 -24 2 -3 -8
1 -14 10 -14 8 0 12 -5 9 -11 -4 -6 -14 -8 -24 -5 -10 4 -7 -1 7 -14 19 -15
21 -23 13 -39 -11 -20 2 -40 14 -21 9 15 36 12 57 -7 14 -12 18 -13 18 -3 0 9
5 7 15 -6 14 -19 14 -18 15 4 0 36 0 35 42 82 13 15 18 19 12 10 -20 -27 -24
-62 -8 -77 16 -17 18 -33 4 -33 -5 0 -10 4 -10 9 0 5 -7 12 -16 15 -12 4 -15
0 -12 -17 2 -16 9 -21 26 -19 22 3 28 -9 23 -47 -2 -7 2 -10 8 -6 6 3 11 13
11 21 0 8 9 14 21 14 11 0 17 4 14 10 -4 6 -15 8 -25 5 -22 -7 -32 6 -19 25 6
10 9 11 9 3 0 -20 28 -15 35 6 4 13 12 18 21 14 11 -4 12 -9 5 -16 -14 -14
-14 -40 -1 -32 5 3 10 2 10 -4 0 -14 -35 -32 -45 -23 -5 4 -5 2 -1 -5 4 -7 14
-9 24 -6 13 5 12 2 -4 -13 -15 -14 -21 -30 -20 -59 1 -22 -3 -45 -9 -51 -11
-13 -45 -6 -45 8 0 6 6 8 13 5 22 -8 15 16 -11 41 -13 13 -22 18 -19 10 2 -7
0 -21 -5 -30 -12 -24 23 -85 42 -73 9 5 6 -27 -4 -43 -8 -13 9 -17 54 -13 24
2 25 2 5 -13 -12 -9 -30 -12 -44 -9 -20 5 -23 3 -18 -12 6 -15 3 -16 -20 -11
-23 5 -25 4 -10 -4 9 -6 17 -19 17 -28 1 -11 7 -7 18 13 12 21 26 31 47 33 18
1 25 -1 18 -5 -7 -5 -9 -13 -5 -18 10 -14 46 -19 37 -6 -3 6 -1 11 4 11 6 0
11 -6 11 -14 0 -21 42 -44 65 -35 11 4 16 8 10 9 -5 1 1 5 15 9 27 8 53 3 85
-16 16 -9 18 -14 8 -24 -11 -11 -13 -10 -13 3 0 17 -40 32 -53 19 -4 -4 -1
-14 8 -21 14 -12 18 -11 26 1 5 8 9 10 9 4 0 -31 -16 -36 -86 -24 -84 14 -114
13 -179 -3 -48 -13 -50 -14 -58 -58 -5 -25 -9 -51 -9 -57 -1 -7 -3 -11 -6 -9
-7 8 -39 -29 -34 -42 2 -6 -3 -12 -12 -12 -9 0 -16 -4 -16 -9 0 -15 127 -24
219 -16 47 4 103 8 123 8 23 1 34 5 30 11 -3 6 3 4 13 -4 10 -8 16 -10 13 -5
-4 6 9 11 34 11 22 1 45 7 51 13 16 16 30 14 23 -4 -4 -12 -1 -13 12 -7 18 9
105 14 294 15 64 1 115 4 113 7 -2 3 25 6 59 6 83 2 184 12 196 19 6 3 10 0
10 -7 0 -10 2 -10 9 1 5 8 16 11 25 8 9 -4 16 -3 16 1 0 4 19 6 42 6 24 -1 54
3 68 9 14 5 39 10 55 11 17 1 35 4 40 7 6 4 18 5 28 4 9 -2 17 1 17 5 0 5 8 9
18 8 21 0 90 11 117 19 11 4 29 8 40 10 11 1 38 5 60 8 22 3 42 10 43 15 2 6
14 10 27 10 13 0 36 5 52 12 15 6 39 12 53 13 14 0 33 4 43 8 34 14 52 19 82
24 17 3 32 8 35 11 3 4 15 8 28 9 12 2 38 9 57 17 20 9 37 14 39 13 1 -1 10 4
18 11 12 10 17 10 20 1 3 -8 9 -6 21 5 9 10 15 21 12 26 -3 5 6 7 19 4 14 -2
31 2 39 10 8 8 18 12 22 8 4 -4 18 7 32 23 14 17 22 23 18 15 -3 -8 0 -7 9 4
8 10 20 15 27 10 7 -4 10 -3 5 4 -3 6 0 14 8 19 22 13 57 83 51 103 -3 10 -8
29 -10 41 -3 12 -9 25 -15 29 -13 8 12 20 140 67 103 39 136 57 162 88 9 11
20 16 25 12 4 -5 -1 -15 -11 -23 -18 -12 -18 -14 -3 -14 10 0 43 9 75 19 31
11 86 27 121 36 81 21 144 53 241 121 109 78 113 82 107 96 -2 8 5 25 16 38
12 15 18 18 14 8 -4 -10 -10 -26 -14 -35 -6 -16 -4 -16 15 1 12 11 22 24 22
31 0 7 10 20 22 31 12 10 18 13 14 6 -13 -22 6 -13 26 13 11 14 52 49 91 79
101 76 130 109 196 228 11 21 18 38 15 38 -4 0 1 11 10 25 15 24 13 30 -8 26
-5 -1 -4 5 3 13 11 13 10 15 -6 11 -10 -2 -27 -7 -37 -11 -14 -5 -17 -4 -11 5
11 19 -36 -7 -52 -28 -7 -9 -13 -11 -13 -6 0 10 31 45 64 73 8 6 22 12 31 12
8 0 15 5 15 10 0 6 5 10 11 10 20 0 83 81 101 129 20 52 22 63 8 41 -8 -12
-10 -11 -10 8 0 12 4 22 9 22 11 0 19 30 14 48 -3 6 -9 10 -13 7 -5 -3 -5 7
-1 22 5 16 7 38 5 51 -2 12 1 22 7 22 6 0 8 9 4 20 -4 11 -2 20 4 20 6 0 11 8
11 18 0 12 -3 13 -8 4 -5 -6 -21 -11 -36 -10 -21 2 -26 7 -23 20 3 10 1 16 -4
12 -5 -3 -9 -11 -9 -19 0 -7 -6 -15 -13 -18 -9 -3 -13 5 -12 24 0 21 8 35 29
49 32 20 49 18 39 -5 -3 -9 1 -15 10 -15 8 0 17 -6 20 -12 16 -47 27 96 12
171 -2 11 0 23 4 25 5 3 6 27 4 53 -4 36 3 70 26 137 17 48 30 100 29 115 -1
35 -26 91 -41 91 -7 0 -6 4 3 10 13 9 12 12 -5 26 -11 8 -19 20 -17 26 4 15
-20 78 -29 73 -3 -3 -9 10 -12 28 -3 17 -17 58 -32 90 -22 47 -29 56 -41 46
-11 -9 -14 -8 -14 4 0 8 5 17 12 19 9 3 5 15 -10 39 l-22 34 7 -75 c3 -41 9
-76 14 -78 12 -5 64 -52 57 -52 -3 0 0 -26 8 -57 17 -73 17 -73 1 -73 -8 0
-19 11 -25 25 -8 17 -20 25 -35 25 -24 0 -24 1 -29 133 -4 125 -6 136 -40 208
-24 51 -33 81 -27 91 6 11 0 28 -19 54 -15 22 -36 52 -46 68 l-18 29 23 -6
c13 -3 88 -28 166 -56 166 -59 265 -112 371 -198 96 -79 196 -132 261 -140 43
-5 59 -1 108 23 31 16 85 55 119 86 76 72 105 133 107 227 l1 66 -45 8 c-24 4
-69 11 -99 16 -57 9 -86 18 -184 58 -56 23 -280 66 -315 62 -35 -5 -159 13
-221 33 -94 29 -318 141 -365 181 -54 47 -83 101 -65 122 16 20 87 11 142 -16
21 -11 42 -19 48 -19 6 0 26 -11 43 -24 34 -25 144 -50 273 -61 124 -11 247
31 359 124 108 90 123 102 190 146 37 25 92 52 123 60 82 23 132 46 132 62 0
7 -6 13 -12 13 -9 0 -8 3 2 10 31 20 -9 25 -183 24 -153 -1 -206 -6 -332 -29
-82 -15 -187 -33 -232 -41 -46 -7 -87 -15 -91 -18 -5 -3 -65 -7 -134 -10 -130
-5 -190 4 -255 37 -41 21 -53 21 -53 0 0 -15 -2 -14 -14 3 -8 10 -18 15 -22
11 -5 -4 -2 -12 6 -17 13 -9 13 -10 0 -10 -9 -1 -5 -6 10 -15 24 -14 24 -14
-20 -15 -54 0 -92 -9 -85 -20 3 -4 -2 -11 -10 -14 -9 -3 -18 1 -22 10 -5 13
-8 13 -28 0 -21 -14 -23 -14 -18 5 3 11 16 27 29 35 23 16 30 58 7 50 -14 -6
-73 22 -73 34 0 19 29 31 49 21 11 -6 26 -8 35 -5 14 5 14 8 -1 30 -17 27 -18
27 52 28 38 1 62 9 100 33 28 17 82 48 120 68 170 88 268 176 331 298 30 56
105 260 115 312 6 28 15 86 20 130 5 44 12 99 15 122 5 36 3 44 -12 49 -36 11
-49 22 -46 37 2 12 -12 20 -50 31 -75 20 -113 23 -193 15z m-865 -999 c6 -11
7 -20 3 -20 -5 0 -14 9 -21 20 -7 11 -8 20 -2 20 5 0 14 -9 20 -20z m348 -53
c2 -11 -1 -15 -11 -12 -7 3 -20 -1 -27 -10 -7 -8 -19 -15 -26 -15 -8 0 -14 -6
-14 -14 0 -7 -8 -13 -17 -13 -35 0 -44 -3 -39 -12 4 -5 -3 -7 -14 -4 -23 6
-26 35 -6 52 11 9 15 9 18 -1 4 -10 14 -8 46 6 23 11 47 25 54 33 14 17 32 12
36 -10z m-228 -38 c0 -6 -4 -7 -10 -4 -5 3 -10 11 -10 16 0 6 5 7 10 4 6 -3
10 -11 10 -16z m-833 -146 c8 -19 -26 -53 -53 -53 -13 0 -25 -4 -29 -10 -3 -5
-12 -7 -20 -3 -9 3 -22 0 -30 -7 -16 -13 -45 -7 -45 10 0 6 16 27 35 47 19 20
35 33 35 29 0 -4 7 -3 15 1 22 13 86 3 92 -14z m131 -36 c8 -9 8 -20 -2 -38
-7 -13 -11 -31 -8 -39 3 -13 2 -13 -7 0 -9 13 -12 13 -24 -3 -14 -21 -68 -21
-74 0 -6 17 66 93 87 93 10 0 22 -6 28 -13z m871 -38 c-11 -7 -10 -9 3 -9 9 0
20 -4 23 -10 3 -5 -3 -10 -13 -10 -21 0 -36 25 -26 41 3 5 10 6 16 3 6 -4 5
-10 -3 -15z m361 -6 c0 -10 -4 -14 -8 -8 -4 6 -11 13 -16 18 -5 4 -2 7 7 7 10
0 17 -8 17 -17z m-756 -31 c3 -5 -1 -9 -9 -9 -8 0 -15 4 -15 9 0 4 4 8 9 8 6
0 12 -4 15 -8z m-829 -12 c3 -5 2 -10 -4 -10 -5 0 -13 5 -16 10 -3 6 -2 10 4
10 5 0 13 -4 16 -10z m516 -6 c17 -8 28 -18 25 -21 -3 -3 -20 4 -38 16 -39 24
-30 28 13 5z m-473 -29 c-3 -3 -9 2 -12 12 -6 14 -5 15 5 6 7 -7 10 -15 7 -18z
m292 -14 c0 -12 -9 -21 -26 -25 -17 -5 -24 -12 -20 -21 3 -9 0 -15 -8 -15 -7
0 -19 -7 -26 -15 -19 -23 -101 -56 -129 -53 -39 5 -38 28 1 28 48 0 129 41
163 83 34 41 45 45 45 18z m34 0 c3 -5 -1 -11 -9 -15 -9 -3 -15 0 -15 9 0 16
16 20 24 6z m516 -8 c0 -2 -8 -12 -17 -21 -16 -16 -16 -16 -10 1 6 17 -1 21
-33 18 -12 -1 -12 0 -2 7 13 9 62 5 62 -5z m-310 -28 c25 -31 8 -50 -54 -57
-33 -4 -67 -14 -76 -23 -9 -8 -30 -20 -46 -25 -29 -11 -84 -84 -84 -112 0 -16
-36 -58 -50 -58 -14 0 -18 23 -7 53 5 15 6 34 3 42 -3 10 1 15 11 15 9 0 44
28 77 63 67 68 89 86 126 104 35 16 85 16 100 -2z m719 -47 c17 -29 51 -78 75
-108 38 -46 118 -187 122 -212 1 -5 3 -23 4 -40 2 -23 4 -27 7 -13 4 14 13 4
35 -43 26 -56 27 -64 14 -78 -13 -12 -13 -18 -3 -28 6 -8 19 -11 27 -8 9 3 11
1 7 -4 -5 -5 -19 -9 -30 -9 -15 0 -23 -7 -25 -22 -2 -12 -13 -25 -24 -29 -12
-3 -30 -15 -42 -25 -24 -23 -26 -21 -32 27 -4 37 -28 69 -45 59 -4 -3 -11 0
-15 6 -4 8 -3 9 4 5 7 -4 12 -3 12 3 0 5 -4 13 -10 16 -5 3 -10 16 -10 28 0
18 -3 15 -18 -13 -21 -42 -52 -53 -52 -18 0 13 -5 30 -10 38 -9 13 -14 10 -35
-15 -33 -40 -32 -20 1 29 19 28 31 36 46 33 11 -3 27 2 37 11 30 28 61 44 61
30 0 -6 3 -8 6 -5 4 4 15 -3 25 -14 10 -12 23 -18 29 -14 5 3 13 -1 17 -10 3
-10 1 -20 -5 -24 -6 -4 -8 -28 -3 -66 5 -50 9 -60 26 -63 19 -3 20 3 21 85 1
70 -2 90 -15 99 -12 9 -18 9 -23 1 -5 -8 -8 -5 -8 7 0 16 -2 16 -16 6 -12 -11
-15 -11 -12 1 2 8 -3 13 -11 11 -10 -2 -12 5 -8 23 4 21 1 26 -12 22 -20 -5
-46 19 -31 28 6 3 10 1 10 -4 0 -6 5 -11 10 -11 23 0 7 21 -30 40 -37 19 -40
19 -40 3 -1 -17 -1 -17 -11 0 -5 9 -17 17 -25 17 -8 0 -25 5 -36 11 -21 11
-21 12 8 25 l29 13 -30 -5 c-30 -6 -30 -6 -9 13 24 20 38 53 24 53 -6 0 -6 10
1 27 7 18 6 30 -1 37 -5 5 -10 25 -10 42 0 18 -5 36 -12 40 -7 5 -9 2 -5 -8 4
-12 1 -14 -14 -11 -13 4 -18 11 -15 20 3 8 6 19 6 24 0 6 5 7 10 4 6 -3 10 -1
10 4 0 25 20 8 49 -41z m-902 16 c-3 -3 -12 -4 -19 -1 -8 3 -5 6 6 6 11 1 17
-2 13 -5z m-471 -39 c2 -12 -2 -13 -18 -4 -16 9 -18 13 -7 20 15 9 22 5 25
-16z m149 15 c-3 -5 -11 -10 -16 -10 -6 0 -7 5 -4 10 3 6 11 10 16 10 6 0 7
-4 4 -10z m1044 -22 c0 -27 -2 -29 -8 -13 -5 11 -6 26 -4 33 8 21 13 13 12
-20z m31 -3 c0 -8 -2 -15 -4 -15 -2 0 -6 7 -10 15 -3 8 -1 15 4 15 6 0 10 -7
10 -15z m-511 -47 c9 -24 -4 -74 -22 -85 -5 -3 -18 4 -28 16 -14 17 -24 21
-40 16 l-22 -7 22 31 c38 53 76 66 90 29z m361 -23 c14 -8 20 -14 14 -15 -6 0
-18 -18 -27 -40 -21 -55 -53 -55 -74 0 -9 22 -20 37 -24 34 -5 -3 -9 -3 -9 0
0 10 55 35 75 35 11 0 31 -6 45 -14z m-210 -76 c0 -20 -17 -59 -29 -69 -16
-12 -30 -84 -19 -97 8 -10 7 -13 -5 -13 -34 0 -32 -97 5 -156 13 -21 30 -52
38 -67 13 -26 65 -64 82 -59 4 1 5 -4 3 -11 -4 -9 8 -11 47 -8 58 4 110 31
151 80 14 17 30 31 35 31 5 0 14 11 20 25 16 34 15 40 -3 25 -19 -15 -24 -11
-27 21 -2 19 1 24 18 23 18 -1 23 6 28 36 5 29 11 39 30 42 15 3 27 -1 35 -14
9 -14 8 -18 -4 -18 -18 0 -19 -12 -3 -28 9 -9 9 -12 1 -12 -7 0 -15 -21 -19
-46 -3 -25 -13 -48 -21 -51 -15 -6 -8 -43 11 -55 8 -6 7 -8 -1 -8 -29 0 -9
-146 27 -189 56 -70 57 -133 3 -158 -38 -18 -39 -18 -53 31 -21 75 -89 126
-169 126 -42 0 -89 -31 -147 -98 l-32 -37 -25 24 c-31 28 -44 76 -26 97 6 8 9
17 6 21 -4 3 0 15 8 27 8 11 15 33 15 48 0 14 5 39 10 53 13 35 5 46 -24 35
-20 -7 -24 -6 -25 13 -4 68 -7 85 -13 80 -5 -2 -8 -1 -9 4 0 4 -3 19 -6 33 -3
14 -6 42 -7 63 0 20 -4 37 -9 37 -4 0 -5 5 -1 12 12 19 12 62 0 78 -10 13 -9
13 7 1 14 -11 17 -11 17 1 0 27 42 117 54 115 6 -1 10 6 8 16 -2 9 2 17 8 17
5 0 10 -9 10 -21z m88 -32 c8 -9 3 -15 -24 -23 -38 -12 -42 -9 -17 18 19 21
27 22 41 5z m-728 -32 c11 -13 10 -14 -4 -9 -9 3 -16 10 -16 15 0 13 6 11 20
-6z m1045 -45 c10 -11 24 -20 31 -20 7 0 16 -4 19 -10 10 -17 -42 7 -65 30
-11 11 -16 20 -12 20 5 0 17 -9 27 -20z m-1180 -4 c16 -8 32 -21 36 -28 13
-19 11 -77 -3 -116 -13 -36 -98 -132 -116 -132 -6 0 -25 -12 -43 -27 -34 -29
-79 -41 -79 -22 0 6 -12 0 -27 -15 -19 -19 -29 -23 -34 -14 -5 8 4 19 24 31
47 28 126 117 136 154 5 18 7 42 4 53 -6 22 29 98 55 118 19 15 14 15 47 -2z
m1295 10 c0 -11 -19 -15 -25 -6 -3 5 1 10 9 10 9 0 16 -2 16 -4z m-790 -15
c-8 -5 -26 -11 -40 -15 -21 -5 -20 -3 5 9 32 15 60 20 35 6z m498 -11 c19 -7
30 -15 25 -19 -4 -3 -13 -19 -18 -36 -13 -37 -41 -45 -50 -13 -4 13 -17 30
-28 40 -17 13 -19 19 -9 31 14 16 33 16 80 -3z m226 -46 c3 -8 2 -12 -4 -9 -6
3 -10 10 -10 16 0 14 7 11 14 -7z m-1619 -80 c10 -10 14 -25 11 -38 -3 -12 -6
-33 -6 -48 0 -36 -11 -35 -32 0 -12 20 -15 40 -11 65 6 41 14 45 38 21z m1871
-39 c-3 -9 -10 -13 -16 -10 -6 4 -5 11 3 20 15 16 22 11 13 -10z m-888 -204
c18 -21 9 -86 -15 -113 -21 -25 -93 -78 -104 -78 -4 0 4 22 17 50 16 34 22 60
19 82 -10 66 -10 73 2 73 6 0 15 3 19 8 11 10 46 -2 62 -22z m1078 -64 c7 -4
16 -23 20 -42 3 -20 10 -38 15 -41 5 -3 8 -22 8 -42 -1 -20 -3 -28 -6 -17 -2
11 -6 25 -7 30 -2 6 -4 14 -4 19 -1 19 -27 25 -39 9 -11 -14 -13 -5 -12 53 0
38 3 62 6 54 3 -8 12 -18 19 -23z m-343 7 c9 -10 -4 -34 -19 -34 -8 0 -14 6
-14 13 0 22 19 35 33 21z m-1087 -47 c-3 -11 1 -35 9 -53 11 -28 11 -35 0 -44
-26 -21 -45 11 -39 65 2 26 7 52 10 56 10 16 26 -3 20 -24z m1341 -2 c-4 -26
-2 -37 11 -44 13 -7 17 -24 17 -73 1 -70 -10 -188 -20 -218 -12 -39 -24 -9
-23 60 0 39 -4 76 -10 83 -6 6 -14 28 -19 47 -9 34 -10 34 -21 13 -7 -13 -19
-51 -27 -85 l-14 -63 3 77 c2 43 -1 79 -6 80 -6 2 -4 15 3 30 6 15 15 25 19
23 9 -6 19 29 21 70 0 17 3 24 6 18 4 -10 10 -10 26 2 33 23 40 18 34 -20z
m-1474 -48 c-1 -23 -2 -51 -2 -62 0 -11 -1 -31 -1 -44 0 -48 -64 -117 -115
-125 -5 -1 -15 -5 -22 -9 -6 -4 -14 -3 -18 3 -4 6 -10 8 -15 5 -5 -3 -12 0
-15 5 -4 6 10 28 32 48 49 47 77 94 93 157 24 93 66 108 63 22z m1157 -17 c8
-5 11 -10 5 -10 -5 0 -17 5 -25 10 -8 5 -10 10 -5 10 6 0 17 -5 25 -10z m115
0 c3 -5 4 -10 1 -10 -2 0 -12 -3 -20 -6 -12 -5 -15 -2 -10 10 7 18 20 21 29 6z
m-52 -7 c-7 -2 -19 -2 -25 0 -7 3 -2 5 12 5 14 0 19 -2 13 -5z m-1553 -38 c0
-8 0 -16 0 -17 1 -2 5 -21 10 -43 8 -38 2 -54 -22 -55 -24 0 -52 123 -32 143
10 10 44 -12 44 -28z m1955 -55 c3 -5 1 -10 -4 -10 -6 0 -11 5 -11 10 0 6 2
10 4 10 3 0 8 -4 11 -10z m-2251 -36 c3 -8 2 -12 -4 -9 -6 3 -10 10 -10 16 0
14 7 11 14 -7z m1903 -41 c-4 9 -2 17 2 17 5 0 14 -14 20 -31 14 -40 14 -39
-4 -39 -8 0 -15 8 -15 18 0 13 -5 11 -24 -11 -14 -16 -31 -29 -38 -31 -7 -1
-17 -4 -23 -8 -6 -3 -11 5 -12 19 0 14 -5 29 -11 35 -14 14 -64 -14 -97 -54
-15 -18 -22 -24 -16 -13 23 45 88 107 126 120 38 13 41 12 69 -13 21 -19 27
-22 23 -9z m-2517 -23 c0 -6 6 -10 13 -9 25 3 35 -2 50 -24 15 -24 15 -24 -28
-24 -24 0 -55 -7 -69 -16 -32 -21 -34 -21 -39 1 -3 14 -6 13 -14 -7 -8 -20
-11 -21 -16 -8 -4 10 -2 17 3 17 6 0 10 5 10 11 0 6 -7 8 -16 5 -14 -5 -15 -4
-4 9 7 8 19 15 26 15 8 0 14 3 14 8 0 8 38 29 58 31 6 0 12 -4 12 -9z m2615
-30 c3 -5 1 -10 -4 -10 -6 0 -11 5 -11 10 0 6 2 10 4 10 3 0 8 -4 11 -10z
m-1925 -30 c16 -9 18 -15 9 -38 -6 -15 -10 -28 -9 -30 1 -2 -3 -15 -9 -30 -23
-53 -142 -112 -228 -112 -31 0 -34 2 -27 23 3 12 7 22 8 22 37 11 163 86 174
104 16 26 54 71 60 71 2 0 12 -5 22 -10z m1431 -13 c-10 -9 -11 -8 -5 6 3 10
9 15 12 12 3 -3 0 -11 -7 -18z m-1758 -67 c4 -16 0 -19 -19 -18 -28 3 -28 4
-11 23 17 20 24 18 30 -5z m2234 -2 c-3 -8 -6 -5 -6 6 -1 11 2 17 5 13 3 -3 4
-12 1 -19z m-395 -20 c-2 -10 -8 -18 -13 -18 -4 0 -11 -16 -15 -36 -5 -25 -23
-52 -61 -90 -47 -48 -58 -54 -95 -54 -57 0 -112 18 -128 43 -9 15 -9 22 -2 25
8 2 7 11 -4 27 -14 22 -14 23 10 21 13 0 22 -4 20 -8 -2 -4 0 -9 5 -12 5 -3
11 1 15 9 3 8 12 12 20 9 8 -3 25 1 37 9 16 12 26 13 39 5 19 -12 80 6 80 23
0 5 6 9 14 9 7 0 23 13 35 28 24 33 51 39 43 10z m332 -6 c3 -5 -4 -39 -15
-76 -16 -54 -30 -77 -66 -112 -51 -48 -110 -75 -123 -54 -6 9 -9 9 -14 -1 -3
-8 -5 -5 -3 6 1 12 10 20 22 20 11 0 21 8 23 19 3 11 0 16 -7 12 -6 -4 -11 -2
-11 3 0 6 12 11 26 11 34 0 94 61 125 127 24 52 33 61 43 45z m-804 -56 c-8
-54 -22 -73 -55 -73 l-24 0 20 26 c12 14 27 41 34 59 20 46 33 40 25 -12z
m-1838 -3 c-5 -24 -6 -25 -12 -8 -8 21 -4 35 9 35 5 0 6 -12 3 -27z m3072 -79
c8 -6 11 -15 7 -23 -10 -16 -35 21 -50 75 -17 60 -12 65 9 9 11 -27 26 -55 34
-61z m-1054 88 c0 -13 -12 -22 -22 -16 -10 6 -1 24 13 24 5 0 9 -4 9 -8z
m-450 -93 c0 -11 -4 -17 -10 -14 -5 3 -10 1 -10 -5 0 -6 7 -13 15 -16 8 -4 12
-10 9 -16 -7 -11 -31 7 -45 34 -12 23 -4 38 22 38 13 0 19 -7 19 -21z m1340
-103 c0 -34 -17 -42 -22 -11 -5 25 -1 35 14 35 4 0 8 -11 8 -24z m98 -23 c23
-52 15 -102 -26 -157 -21 -28 -48 -67 -59 -86 -29 -48 -77 -82 -92 -67 -6 6
-11 16 -11 22 0 5 5 3 10 -5 8 -13 10 -13 10 2 0 10 14 28 31 40 67 50 117
161 84 188 -18 15 -19 43 -3 70 18 28 41 25 56 -7z m-1682 -7 c18 -47 -89
-138 -156 -133 -44 3 -35 31 17 50 33 12 57 30 77 57 31 41 53 50 62 26z
m-1176 -6 c0 -5 -2 -10 -4 -10 -3 0 -8 5 -11 10 -3 6 -1 10 4 10 6 0 11 -4 11
-10z m2447 -10 c4 -13 3 -13 -5 -1 -9 12 -13 13 -26 1 -14 -11 -16 -10 -10 4
8 20 36 17 41 -4z m-1595 -45 c-2 -14 -6 -25 -8 -25 -2 0 -4 11 -4 25 0 14 4
25 9 25 4 0 6 -11 3 -25z m-1254 -28 c10 4 13 2 8 -5 -3 -6 2 -13 12 -16 20
-7 67 -65 58 -73 -2 -3 -17 4 -33 14 -34 24 -71 34 -79 22 -3 -5 -11 -9 -17
-8 -24 3 -38 -1 -33 -10 4 -5 -3 -7 -14 -4 -14 4 -22 -1 -29 -18 -5 -13 -7
-27 -4 -31 2 -5 -3 -8 -12 -8 -8 0 -18 7 -21 15 -4 8 -12 15 -20 15 -16 0 -19
17 -4 22 6 2 13 17 16 33 3 16 6 31 8 32 3 4 85 14 109 14 9 0 17 5 17 12 0 8
3 8 11 0 6 -6 18 -9 27 -6z m502 -10 c0 5 5 1 10 -7 6 -10 10 -11 10 -2 0 6 5
12 10 12 13 0 13 -27 0 -35 -5 -3 -23 2 -40 12 -26 15 -36 16 -76 5 -26 -7
-49 -10 -52 -7 -3 3 2 5 10 5 9 0 19 7 22 16 3 8 10 12 16 9 5 -3 18 -2 27 4
13 7 24 6 41 -5 12 -8 22 -11 22 -7z m-190 -3 c0 -8 -4 -12 -10 -9 -5 3 -10
10 -10 16 0 5 5 9 10 9 6 0 10 -7 10 -16z m795 -42 c-1 -62 -22 -88 -102 -128
-41 -20 -64 -25 -91 -21 -73 12 -65 43 20 74 49 17 104 62 136 111 23 35 37
21 37 -36z m-305 24 c0 -3 -4 -8 -10 -11 -5 -3 -10 -1 -10 4 0 6 5 11 10 11 6
0 10 -2 10 -4z m-244 -33 c-10 -10 -19 5 -10 18 6 11 8 11 12 0 2 -7 1 -15 -2
-18z m254 -30 c0 -7 -7 -13 -15 -13 -15 0 -21 31 -8 43 8 8 23 -12 23 -30z
m2520 9 c0 -4 -9 -13 -20 -20 -18 -11 -19 -10 -8 13 10 21 28 26 28 7z m-355
-12 c-3 -5 -12 -10 -18 -10 -7 0 -6 4 3 10 19 12 23 12 15 0z m-3300 -49 c3
-5 1 -12 -5 -16 -5 -3 -10 1 -10 9 0 18 6 21 15 7z m292 -38 c-9 -9 -20 -13
-24 -9 -4 4 -1 11 7 16 25 16 35 11 17 -7z m327 -92 c-8 -9 -22 12 -17 26 6
15 7 14 13 -3 4 -10 6 -21 4 -23z m261 15 c21 -20 0 -67 -42 -95 -36 -23 -135
-46 -159 -37 -8 3 -18 16 -23 28 -10 28 8 48 43 48 15 0 52 13 82 30 31 16 60
27 65 24 5 -3 9 0 9 5 0 15 9 14 25 -3z m-705 0 c0 -3 -4 -8 -10 -11 -5 -3
-10 -1 -10 4 0 6 5 11 10 11 6 0 10 -2 10 -4z m2846 -46 c5 -5 21 -11 34 -13
37 -6 36 -33 -2 -57 -67 -40 -105 -17 -75 46 17 35 26 41 43 24z m-832 -40
c20 -1 20 -1 2 -12 -14 -8 -24 -8 -37 1 -24 14 -32 14 -23 -1 4 -7 -2 -4 -14
6 -25 22 -29 38 -8 30 8 -3 17 0 22 7 5 9 11 7 22 -9 8 -12 24 -22 36 -22z
m930 21 c3 -5 -1 -11 -9 -14 -9 -4 -12 -1 -8 9 6 16 10 17 17 5z m-3300 -16
c4 -11 -1 -14 -18 -13 -15 1 -22 7 -19 15 7 18 30 16 37 -2z m156 -6 c-7 -11
-14 -18 -17 -15 -3 3 0 12 7 21 18 21 23 19 10 -6z m1815 -30 c-10 -10 -27
-18 -39 -18 -11 0 -32 -2 -46 -6 -14 -4 -6 3 16 15 23 11 50 30 60 42 17 18
19 18 22 3 2 -9 -4 -25 -13 -36z m882 20 c10 -20 9 -25 -9 -37 -11 -8 -36 -15
-55 -16 -27 -1 -37 4 -43 20 -21 54 80 85 107 33z m921 -64 c7 -14 12 -30 12
-35 0 -18 -58 -68 -76 -67 -23 2 -46 61 -37 95 5 20 11 23 34 20 16 -3 29 -1
29 4 0 19 28 6 38 -17z m-2198 -25 c0 -5 -5 -10 -11 -10 -5 0 -7 5 -4 10 3 6
8 10 11 10 2 0 4 -4 4 -10z m-990 -16 c0 -8 -4 -12 -10 -9 -5 3 -10 10 -10 16
0 5 5 9 10 9 6 0 10 -7 10 -16z m-176 -25 c-9 -16 15 -29 56 -29 26 0 31 -3
20 -10 -8 -5 -10 -10 -4 -10 5 0 15 5 21 11 17 17 33 2 33 -31 0 -16 5 -32 10
-35 6 -3 10 -14 10 -23 0 -14 -2 -13 -13 3 -8 10 -19 15 -25 11 -7 -4 -10 -2
-6 7 8 22 -45 39 -103 33 -38 -4 -55 -1 -64 10 -6 8 -9 17 -5 21 3 3 6 2 6 -3
0 -5 10 -11 22 -11 18 -2 20 0 8 8 -13 8 -13 11 3 23 9 7 17 18 17 25 0 6 5
11 11 11 5 0 7 -5 3 -11z m2581 -9 c3 -5 1 -10 -4 -10 -6 0 -11 5 -11 10 0 6
2 10 4 10 3 0 8 -4 11 -10z m-1488 -36 c6 -17 -38 -66 -71 -79 -67 -27 -76
-28 -76 -6 0 12 -4 21 -10 21 -5 0 -10 -4 -10 -10 0 -5 -4 -10 -10 -10 -18 0
-11 40 8 41 49 4 63 8 103 32 44 27 60 29 66 11z m-272 -44 c-5 -8 -11 -8 -17
-2 -6 6 -7 16 -3 22 5 8 11 8 17 2 6 -6 7 -16 3 -22z m-898 5 c0 -8 -4 -15 -9
-15 -10 0 -11 14 -1 23 9 10 10 9 10 -8z m3293 3 c0 -4 -4 -8 -9 -8 -6 0 -12
4 -15 8 -3 5 1 9 9 9 8 0 15 -4 15 -9z m-2582 -24 c-4 -3 -2 -19 2 -35 5 -17
5 -29 -1 -29 -11 0 -23 46 -14 59 3 6 9 11 12 11 4 0 4 -3 1 -6z m-764 -90
c19 -7 20 -38 3 -78 l-13 -29 -13 41 c-8 22 -11 48 -8 56 7 18 9 18 31 10z
m146 2 c0 -2 -7 -7 -16 -10 -8 -3 -12 -2 -9 4 6 10 25 14 25 6z m190 -41 c0
-8 -4 -15 -10 -15 -5 0 -10 7 -10 15 0 8 5 15 10 15 6 0 10 -7 10 -15z m155
-37 c0 -23 -5 -33 -15 -33 -19 0 -26 55 -9 66 19 11 24 5 24 -33z m1240 33 c6
-11 -33 -41 -54 -41 -10 0 -8 7 9 25 25 27 35 30 45 16z m1280 1 c15 -10 16
-49 2 -60 -7 -5 -35 -14 -64 -19 -40 -8 -50 -7 -46 3 2 7 11 10 19 7 9 -3 14
2 15 13 0 11 3 14 6 7 2 -7 12 -13 20 -13 11 0 14 6 10 22 -4 12 -1 28 5 35
12 15 19 16 33 5z m339 -8 c3 -8 2 -12 -4 -9 -6 3 -10 -2 -10 -11 0 -10 -3
-15 -6 -11 -6 5 4 47 11 47 1 0 6 -7 9 -16z m-3020 -37 c30 -45 7 -111 -48
-136 -46 -20 -138 -20 -162 0 -15 12 -2 49 17 49 12 0 62 34 112 78 44 38 61
40 81 9z m424 -5 c7 -47 -99 -110 -134 -81 -22 18 -16 33 21 53 19 10 42 27
52 38 22 25 57 20 61 -10z m2495 3 c-3 -9 -8 -14 -10 -11 -3 3 -2 9 2 15 9 16
15 13 8 -4z m67 -18 c0 -2 -10 -12 -22 -23 l-23 -19 19 23 c18 21 26 27 26 19z
m-872 -22 c1 -1 0 -9 -3 -17 -6 -16 -40 -14 -51 3 -14 23 30 34 54 14z m-434
-8 c21 -15 18 -51 -4 -54 -27 -5 -43 13 -36 41 7 29 14 32 40 13z m1255 -32
c1 6 13 12 29 13 l27 2 -25 -20 c-14 -11 -30 -20 -37 -20 -14 0 -22 20 -15 39
4 11 7 10 13 -5 4 -10 8 -14 8 -9z m-54 -113 c0 -34 -21 -63 -40 -56 -11 5 -8
14 12 45 14 21 26 39 27 39 0 0 1 -13 1 -28z m-3425 8 c0 -5 -4 -10 -10 -10
-5 0 -10 5 -10 10 0 6 5 10 10 10 6 0 10 -4 10 -10z m1403 -30 c-3 -11 -9 -17
-14 -14 -5 3 -9 1 -9 -5 0 -5 -13 -9 -30 -9 l-30 1 32 24 c39 28 58 30 51 3z
m-943 -34 c0 -8 7 -17 16 -20 9 -4 14 -9 10 -13 -3 -4 5 -19 20 -34 19 -20 22
-29 13 -35 -8 -4 -15 -2 -18 7 -2 8 -19 29 -37 47 -24 24 -41 32 -68 32 -45 0
-48 17 -3 23 62 7 67 7 67 -7z m-110 -16 c0 -14 -28 -19 -33 -5 -3 7 -3 15 0
18 7 7 33 -3 33 -13z m874 -38 c-21 -5 -28 4 -20 24 6 16 8 15 21 -2 12 -16
12 -19 -1 -22z m1866 -18 c0 -8 -4 -12 -10 -9 -5 3 -10 10 -10 16 0 5 5 9 10
9 6 0 10 -7 10 -16z m-47 -15 c-4 -15 -8 -17 -14 -8 -8 14 -3 29 11 29 4 0 6
-9 3 -21z m-2309 -4 c-4 -8 -10 -15 -15 -15 -4 0 -6 7 -3 15 4 8 10 15 15 15
4 0 6 -7 3 -15z m1071 -45 c-3 -5 -14 -10 -23 -10 -15 0 -15 2 -2 10 20 13 33
13 25 0z m745 -21 c0 -11 -11 -20 -31 -24 -36 -8 -43 -3 -35 23 8 25 66 27 66
1z m-1630 -13 c0 -15 -38 -29 -52 -20 -5 3 2 14 14 24 24 19 38 18 38 -4z
m-193 -23 c-16 -16 -17 -16 -17 3 0 26 11 37 24 24 7 -7 5 -16 -7 -27z m1383
12 c0 -16 -6 -25 -15 -25 -15 0 -21 31 -8 43 13 14 23 6 23 -18z m-2273 -40
c7 -33 7 -47 -1 -54 -18 -15 -40 4 -33 28 3 11 1 19 -3 18 -4 -1 -7 3 -6 8 0
6 5 9 9 7 5 -1 6 7 2 18 -4 13 -2 20 8 20 8 0 18 -18 24 -45z m907 0 c-4 -15
-2 -25 5 -25 6 0 11 5 11 11 0 5 5 7 10 4 6 -3 10 -13 10 -21 0 -11 -6 -13
-22 -8 -30 9 -39 24 -27 46 14 26 20 22 13 -7z m2411 5 c3 -5 -1 -10 -9 -10
-9 0 -16 5 -16 10 0 6 4 10 9 10 6 0 13 -4 16 -10z m-2627 -25 c1 -11 -11 -39
-28 -62 -27 -36 -36 -41 -78 -45 -60 -6 -73 -1 -68 25 3 12 5 25 5 29 1 3 14
9 29 13 16 3 44 19 63 35 38 33 73 35 77 5z m-378 5 c0 -5 -4 -10 -10 -10 -5
0 -10 5 -10 10 0 6 5 10 10 10 6 0 10 -4 10 -10z m117 -2 c5 -7 10 -25 12 -40
2 -24 -1 -28 -23 -28 -36 0 -42 18 -15 46 20 21 21 24 5 18 -14 -5 -17 -4 -12
4 9 15 21 15 33 0z m-427 -92 c0 -11 -19 -15 -25 -6 -3 5 1 10 9 10 9 0 16 -2
16 -4z m920 -36 c0 -5 -5 -10 -11 -10 -5 0 -7 5 -4 10 3 6 8 10 11 10 2 0 4
-4 4 -10z m-665 -17 c-11 -3 -23 -10 -27 -17 -5 -7 -8 -7 -8 0 0 16 11 24 34
23 20 -1 20 -1 1 -6z m555 -25 c0 -19 -16 -5 -17 14 -2 18 0 20 7 8 5 -8 10
-18 10 -22z m-670 -28 c0 -5 -2 -10 -4 -10 -3 0 -8 5 -11 10 -3 6 -1 10 4 10
6 0 11 -4 11 -10z m770 -10 c0 -5 -4 -10 -10 -10 -5 0 -10 5 -10 10 0 6 5 10
10 10 6 0 10 -4 10 -10z m-51 -23 c0 -9 -2 -8 -6 1 -2 6 -10 9 -15 6 -7 -4 -8
-2 -4 5 9 13 26 5 25 -12z m-333 -9 c4 -6 3 -8 -3 -5 -5 3 -10 0 -10 -7 0 -19
35 -8 40 13 3 11 5 9 6 -6 1 -22 32 -39 51 -28 6 3 7 -1 4 -10 -7 -18 3 -66
14 -63 4 1 17 -2 30 -6 14 -5 28 -3 37 4 8 7 15 8 15 3 0 -13 -49 -35 -62 -27
-6 4 -8 -1 -3 -15 10 -32 -33 -93 -56 -80 -14 7 -16 15 -10 37 12 40 2 88 -23
111 -18 17 -36 21 -90 22 -56 1 -65 3 -55 15 10 12 9 13 -5 8 -9 -3 -16 -12
-16 -19 0 -7 -6 -15 -14 -18 -14 -6 -24 2 -41 33 -7 13 -6 13 7 2 13 -10 17
-10 21 1 5 14 45 16 67 2 10 -6 12 -4 7 9 -5 14 -3 15 12 6 14 -7 22 -6 30 4
6 7 8 16 4 19 -3 4 3 7 15 7 11 0 24 -5 28 -12z m1614 -13 c-7 -9 -15 -13 -19
-10 -3 3 1 10 9 15 21 14 24 12 10 -5z m-1872 -20 c2 -27 -12 -34 -21 -11 -4
10 9 36 18 36 0 0 2 -11 3 -25z m455 5 c-3 -12 -8 -19 -11 -16 -5 6 5 36 12
36 2 0 2 -9 -1 -20z m-428 0 c3 -5 1 -10 -4 -10 -6 0 -11 5 -11 10 0 6 2 10 4
10 3 0 8 -4 11 -10z m405 -9 c0 -14 -6 -17 -26 -13 l-25 5 23 12 c13 7 24 13
26 14 1 1 2 -7 2 -18z m94 -7 c11 -10 14 -24 10 -41 -6 -23 -9 -42 -13 -82 -1
-11 -5 -10 -21 4 -19 17 -20 17 -29 -9 -6 -14 -17 -26 -25 -26 -12 0 -13 5 -4
32 10 29 58 89 58 73 0 -3 5 -3 11 0 7 5 5 14 -5 30 -8 12 -12 25 -9 29 9 8
10 8 27 -10z m-114 -50 c0 -2 -9 0 -20 6 -11 6 -20 13 -20 16 0 2 9 0 20 -6
11 -6 20 -13 20 -16z m30 -49 c0 -8 -4 -15 -10 -15 -5 0 -7 7 -4 15 4 8 8 15
10 15 2 0 4 -7 4 -15z m-29 -42 c12 -15 12 -16 -3 -10 -10 3 -18 2 -18 -3 0
-6 -5 -10 -10 -10 -7 0 -7 6 0 20 13 24 14 24 31 3z m99 -18 c-12 -15 5 -39
22 -32 8 3 20 -4 28 -16 9 -15 10 -22 1 -25 -6 -2 -11 -11 -11 -19 0 -13 -3
-13 -15 -3 -13 11 -14 10 -9 -5 5 -13 4 -16 -5 -10 -8 4 -11 20 -9 36 4 23 1
29 -14 29 -13 0 -17 4 -12 12 11 18 12 48 2 48 -5 0 -6 4 -3 10 4 6 11 5 20
-3 7 -7 9 -16 5 -22z m106 -21 c-3 -8 -12 -14 -21 -14 -21 0 -19 40 3 56 15
11 17 10 20 -7 2 -11 1 -27 -2 -35z m-231 -4 c-3 -5 -14 -10 -23 -10 -15 0
-15 2 -2 10 20 13 33 13 25 0z m-129 -26 c-3 -9 -6 -17 -6 -19 0 -2 -9 -1 -20
2 -25 7 -26 20 -2 26 31 8 34 7 28 -9z m-158 -41 c-4 -39 -28 -42 -28 -4 0 21
5 31 16 31 11 0 14 -8 12 -27z m-78 -47 c0 -3 -4 -8 -10 -11 -5 -3 -10 -1 -10
4 0 6 5 11 10 11 6 0 10 -2 10 -4z m387 -94 c-17 -18 -25 -34 -21 -47 3 -12
-3 -29 -16 -43 -29 -31 -38 -20 -11 14 26 33 19 44 -11 18 -14 -12 -18 -13
-10 -3 6 9 8 20 4 24 -4 5 -2 5 4 2 6 -3 25 10 43 28 18 19 35 35 39 35 3 0
-6 -12 -21 -28z m63 -7 c-7 -8 -17 -15 -22 -15 -6 0 -5 7 2 15 7 8 17 15 22
15 6 0 5 -7 -2 -15z m-150 -88 c10 -4 8 -6 -6 -6 -12 -1 -25 -8 -28 -16 -4
-12 -14 -14 -42 -9 -31 6 -36 4 -31 -9 4 -12 -1 -15 -24 -15 -18 1 -29 6 -29
15 0 9 5 11 13 7 7 -5 7 -1 -2 10 -13 16 -12 17 12 11 20 -5 28 -3 33 9 6 16
28 17 52 3 7 -5 15 -2 18 8 4 9 10 12 13 7 3 -5 13 -12 21 -15z m-352 -45 c-4
-2 -8 -11 -8 -19 0 -9 -3 -14 -6 -10 -4 3 -3 23 1 44 7 35 8 36 15 13 3 -14 3
-26 -2 -28z"/>
<path d="M4356 3581 c-4 -7 -5 -15 -2 -18 9 -9 19 4 14 18 -4 11 -6 11 -12 0z"/>
<path d="M3788 2653 c7 -3 16 -2 19 1 4 3 -2 6 -13 5 -11 0 -14 -3 -6 -6z"/>
<path d="M2657 5183 c-3 -10 -8 -39 -12 -65 -3 -26 -7 -51 -8 -54 -1 -4 32
-19 73 -34 41 -15 88 -32 103 -38 15 -7 31 -11 35 -10 4 0 25 -7 47 -16 124
-55 179 -84 265 -140 95 -62 141 -84 137 -63 -1 5 18 15 43 22 l45 11 -47 18
c-31 12 -59 16 -82 12 -31 -6 -40 -1 -98 47 -34 29 -74 60 -88 70 -14 9 -45
33 -70 52 -25 19 -62 44 -82 55 -21 11 -52 33 -70 49 -18 15 -57 40 -85 55
-29 14 -53 31 -53 36 0 18 -48 11 -53 -7z"/>
<path d="M2840 4915 c0 -7 111 -38 116 -32 2 2 2 12 -2 21 -5 12 -19 16 -60
16 -30 0 -54 -2 -54 -5z"/>
<path d="M3690 4910 c0 -5 5 -10 11 -10 5 0 7 5 4 10 -3 6 -8 10 -11 10 -2 0
-4 -4 -4 -10z"/>
<path d="M1763 4903 c9 -2 23 -2 30 0 6 3 -1 5 -18 5 -16 0 -22 -2 -12 -5z"/>
<path d="M3399 4902 c11 -8 9 -11 -10 -15 -13 -2 -7 -4 13 -3 21 0 38 4 38 9
0 4 -4 7 -9 7 -5 0 -18 3 -28 6 -14 5 -15 4 -4 -4z"/>
<path d="M2511 4845 c-33 -38 -47 -45 -37 -19 5 14 4 15 -9 4 -20 -16 -16 -78
5 -93 9 -7 19 -20 23 -30 6 -16 9 -16 29 -3 15 9 30 11 43 6 16 -7 13 -9 -15
-10 -34 -1 -34 -2 -10 -11 24 -10 100 -7 152 6 31 8 41 37 26 71 -13 28 -25
29 -92 9 -27 -8 -52 -13 -55 -10 -10 11 -9 38 2 49 16 16 47 27 47 17 0 -10
51 -33 58 -26 3 3 0 5 -7 5 -8 0 -11 7 -7 15 6 16 5 16 -34 20 -13 1 -26 8
-28 14 -3 8 -9 6 -17 -6 -11 -14 -16 -16 -26 -5 -10 10 -10 12 0 12 7 0 9 5 6
10 -10 17 -22 12 -54 -25z m23 -10 c-4 -8 -8 -15 -10 -15 -2 0 -4 7 -4 15 0 8
4 15 10 15 5 0 7 -7 4 -15z"/>
<path d="M3480 4876 c0 -2 9 -6 20 -9 11 -3 18 -1 14 4 -5 9 -34 13 -34 5z"/>
<path d="M2689 4862 c12 -9 12 -13 2 -26 -11 -14 -11 -16 3 -16 22 0 18 42 -4
47 -13 4 -13 3 -1 -5z"/>
<path d="M2740 4790 c0 -5 6 -9 13 -7 6 1 11 -3 10 -9 -2 -9 4 -9 22 0 34 15
31 21 -10 24 -19 2 -35 -2 -35 -8z"/>
<path d="M3810 4753 c0 -25 36 -77 44 -64 11 17 -5 61 -25 72 -15 8 -19 6 -19
-8z"/>
<path d="M1660 4750 c0 -5 7 -10 16 -10 8 0 12 5 9 10 -3 6 -10 10 -16 10 -5
0 -9 -4 -9 -10z"/>
<path d="M3871 4734 c0 -11 3 -14 6 -6 3 7 2 16 -1 19 -3 4 -6 -2 -5 -13z"/>
<path d="M2040 4732 c-37 -17 -79 -57 -84 -78 -4 -13 -10 -24 -15 -24 -5 0 -7
10 -4 23 5 17 3 20 -7 10 -7 -6 -19 -9 -28 -5 -11 4 -14 1 -10 -10 4 -9 2 -20
-4 -26 -34 -34 85 -11 179 36 59 29 68 39 55 59 -10 16 -62 25 -82 15z m-32
-47 c-12 -14 -24 -23 -26 -20 -6 6 28 45 39 45 5 0 -1 -11 -13 -25z"/>
<path d="M2920 4726 c0 -9 5 -16 10 -16 6 0 10 4 10 9 0 6 -4 13 -10 16 -5 3
-10 -1 -10 -9z"/>
<path d="M2962 4731 c-10 -6 -6 -11 16 -19 23 -8 35 -7 48 3 16 11 13 12 -21
9 -29 -3 -36 -2 -25 6 18 12 1 13 -18 1z"/>
<path d="M4015 4731 c-3 -5 5 -18 18 -28 13 -10 26 -25 30 -33 4 -11 6 -10 7
5 3 31 -1 49 -13 57 -16 10 -35 10 -42 -1z"/>
<path d="M1806 4715 c10 -8 28 -14 39 -14 11 0 14 3 7 6 -6 2 -10 9 -6 14 3 5
0 9 -5 9 -6 0 -11 -5 -11 -12 0 -9 -3 -9 -12 0 -7 7 -16 12 -22 12 -5 0 -1 -7
10 -15z"/>
<path d="M1911 4717 c-6 -8 -8 -17 -4 -20 3 -4 1 -7 -4 -7 -6 0 -13 4 -15 8
-1 4 -11 0 -20 -10 -19 -19 -12 -21 32 -9 16 5 25 14 26 29 1 26 0 26 -15 9z"/>
<path d="M3550 4720 c0 -5 7 -10 15 -10 8 0 15 5 15 10 0 6 -7 10 -15 10 -8 0
-15 -4 -15 -10z"/>
<path d="M2880 4710 c0 -5 5 -10 10 -10 6 0 10 5 10 10 0 6 -4 10 -10 10 -5 0
-10 -4 -10 -10z"/>
<path d="M3054 4700 c4 -14 10 -34 13 -44 5 -15 2 -18 -9 -13 -9 3 -20 1 -26
-5 -8 -8 -15 -8 -25 0 -9 8 -24 9 -43 3 -16 -4 -35 -6 -41 -4 -7 3 -26 -5 -43
-17 -16 -12 -30 -17 -30 -11 0 5 8 15 18 20 9 6 12 11 7 11 -6 0 -16 -5 -22
-11 -13 -13 -55 -8 -59 6 -2 6 15 18 37 29 43 19 39 36 -8 36 -25 0 -31 -15
-10 -23 6 -3 -1 -6 -18 -7 -19 0 -36 -9 -48 -25 -17 -24 -17 -25 5 -39 26 -16
58 -20 178 -17 81 1 87 3 123 34 42 37 46 56 15 83 -21 19 -21 19 -14 -6z"/>
<path d="M1329 4683 c-13 -16 -12 -17 4 -4 9 7 17 15 17 17 0 8 -8 3 -21 -13z"/>
<path d="M1670 4662 c0 -12 3 -12 15 -2 8 7 15 13 15 15 0 1 -7 2 -15 2 -8 0
-15 -7 -15 -15z"/>
<path d="M3939 4646 c-13 -28 -14 -40 -4 -58 6 -13 17 -22 23 -20 7 1 12 -2
12 -7 0 -5 7 -11 15 -15 13 -5 14 -2 5 15 -6 11 -21 24 -33 29 -17 7 -18 9 -4
9 18 1 22 30 9 64 -6 15 -10 12 -23 -17z"/>
<path d="M1282 4645 l-24 -25 -19 23 c-15 18 -18 19 -19 5 0 -10 8 -22 19 -27
15 -8 24 -5 45 14 14 13 26 27 26 30 0 9 -4 6 -28 -20z"/>
<path d="M1690 4650 c0 -5 5 -10 10 -10 6 0 10 5 10 10 0 6 -4 10 -10 10 -5 0
-10 -4 -10 -10z"/>
<path d="M3600 4651 c0 -5 7 -11 14 -14 10 -4 13 -1 9 9 -6 15 -23 19 -23 5z"/>
<path d="M1663 4625 c0 -8 4 -12 9 -9 5 3 6 10 3 15 -9 13 -12 11 -12 -6z"/>
<path d="M1674 4603 c-16 -3 -23 -14 -28 -41 -7 -40 -60 -115 -54 -77 2 16 -3
21 -29 23 -25 2 -40 -5 -71 -33 -28 -25 -39 -30 -38 -19 0 9 -5 19 -11 21 -7
3 -13 -3 -13 -11 0 -9 -6 -19 -14 -22 -9 -3 -12 -13 -8 -27 5 -20 4 -21 -13
-7 -17 14 -18 13 -12 -3 4 -10 7 -21 7 -23 0 -2 10 -4 22 -4 12 0 18 3 15 7
-4 3 -2 13 5 20 9 11 9 17 -3 25 -12 8 -12 9 1 5 9 -2 15 -16 16 -36 1 -36 8
-34 -81 -19 -14 2 -21 -3 -23 -18 -3 -17 1 -20 31 -16 43 5 57 -14 23 -30 -36
-16 -32 -35 7 -29 4 0 7 -3 7 -8 0 -25 72 19 133 82 l68 71 -28 12 -28 13 35
-2 c25 -1 34 -6 32 -17 -3 -13 -1 -13 10 -1 10 11 10 14 1 18 -7 3 -13 9 -13
14 0 6 5 7 10 4 6 -3 13 1 16 9 3 9 10 13 15 10 14 -8 40 16 32 29 -11 18 -12
61 -1 74 6 7 9 12 7 12 -2 -1 -14 -4 -25 -6z m-17 -85 c-3 -8 -6 -5 -6 6 -1
11 2 17 5 13 3 -3 4 -12 1 -19z m-144 -63 c-20 -27 -33 -32 -33 -12 0 17 20
37 37 37 11 0 9 -6 -4 -25z"/>
<path d="M2369 4593 c5 -10 10 -22 10 -28 1 -5 7 -10 14 -10 32 -1 55 -30 54
-71 0 -22 3 -46 8 -54 6 -9 4 -12 -6 -8 -24 9 -52 -7 -55 -33 -3 -22 -3 -22
10 -6 7 9 16 17 19 17 3 0 4 -8 2 -17 -2 -10 -4 -24 -4 -32 -1 -7 -7 -11 -14
-8 -9 3 -13 -3 -13 -17 1 -16 -4 -20 -21 -19 -31 4 -29 -5 5 -19 l27 -12 -25
-3 c-14 -2 -32 -7 -40 -10 -8 -3 -18 -6 -21 -5 -4 1 -6 -6 -5 -16 1 -13 -7
-17 -31 -16 -18 0 -32 -2 -31 -5 2 -17 -3 -25 -10 -15 -5 8 -15 8 -31 2 -15
-5 -21 -12 -15 -18 14 -13 133 -38 157 -33 16 3 18 2 9 -5 -10 -7 -8 -13 12
-25 21 -14 24 -23 21 -61 -1 -24 -6 -50 -11 -57 -4 -7 -9 -46 -10 -88 -3 -61
0 -81 18 -112 12 -21 25 -36 30 -33 5 3 16 0 24 -7 8 -6 17 -9 21 -6 3 4 14 0
25 -7 28 -20 80 -1 158 57 36 27 71 51 78 54 6 3 12 11 12 19 0 8 6 14 13 14
8 0 24 21 37 46 19 36 21 47 11 54 -8 4 -11 12 -7 18 3 6 3 13 -2 16 -4 2 -9
-6 -10 -18 -1 -12 -8 -38 -17 -57 -14 -31 -15 -32 -13 -7 2 17 -6 36 -22 53
-15 16 -25 39 -26 59 -1 46 -31 107 -49 100 -10 -4 -12 0 -8 16 5 20 83 67 83
50 0 -11 63 4 67 16 4 12 -26 12 -45 0 -7 -4 -16 -5 -19 -2 -3 3 -11 2 -17 -3
-6 -5 -33 -12 -61 -15 -27 -3 -69 -8 -93 -11 -33 -4 -41 -2 -36 8 4 6 -3 3
-16 -8 -22 -19 -23 -19 -17 -1 4 10 3 24 -3 31 -17 21 -2 40 34 42 27 2 36 -2
41 -17 9 -28 71 -26 159 5 84 29 95 39 78 65 -10 16 -10 25 -1 43 7 12 11 22
10 22 -13 0 27 55 50 70 17 11 34 27 39 36 8 14 2 18 -31 23 -27 4 -47 2 -57
-6 -11 -9 -14 -9 -9 -1 5 7 1 12 -10 12 -132 -1 -193 3 -193 14 0 7 -4 6 -10
-3 -9 -13 -11 -13 -20 0 -5 8 -10 12 -10 9 0 -3 -21 -3 -47 1 -29 5 -56 4 -68
-3 -18 -9 -18 -8 -7 6 11 13 10 15 -7 10 -13 -3 -23 2 -30 16 -7 12 -18 21
-27 21 -11 0 -12 -4 -5 -17z m411 -113 c0 -5 -5 -10 -11 -10 -5 0 -7 5 -4 10
3 6 8 10 11 10 2 0 4 -4 4 -10z m-51 -54 c10 -12 5 -18 -31 -34 -24 -10 -49
-26 -57 -35 -30 -38 -74 -9 -54 35 16 36 120 60 142 34z m-364 -206 c3 -5 2
-10 -4 -10 -5 0 -13 5 -16 10 -3 6 -2 10 4 10 5 0 13 -4 16 -10z m115 -8 c0
-5 -7 -9 -15 -9 -8 0 -12 4 -9 9 3 4 9 8 15 8 5 0 9 -4 9 -8z m-180 -30 c0 -8
-1 -13 -3 -11 -1 2 -9 12 -16 22 -12 15 -12 17 3 11 9 -3 16 -13 16 -22z m276
-126 c3 -8 -10 -34 -29 -59 -19 -25 -37 -52 -40 -59 -2 -7 -8 -9 -13 -5 -5 4
-4 11 2 15 11 7 29 60 26 75 -1 4 5 10 13 13 8 4 15 12 15 20 0 18 19 18 26 0z"/>
<path d="M2176 4584 c-5 -12 -2 -15 11 -10 9 4 20 1 25 -6 6 -10 8 -10 8 -1 0
7 -9 17 -19 22 -15 8 -20 7 -25 -5z"/>
<path d="M2300 4591 c0 -11 60 -30 65 -21 3 4 -3 11 -13 15 -23 10 -52 13 -52
6z"/>
<path d="M2017 4564 c4 -11 8 -12 13 -4 4 7 13 9 19 6 6 -4 11 -2 11 3 0 6
-11 11 -25 11 -18 0 -23 -4 -18 -16z"/>
<path d="M1895 4560 c-3 -5 -1 -10 4 -10 6 0 11 5 11 10 0 6 -2 10 -4 10 -3 0
-8 -4 -11 -10z"/>
<path d="M1948 4563 c6 -2 18 -2 25 0 6 3 1 5 -13 5 -14 0 -19 -2 -12 -5z"/>
<path d="M2064 4550 c-23 -9 -84 -75 -84 -91 0 -6 -4 -7 -10 -4 -11 7 -14 -8
-3 -19 16 -15 9 -54 -18 -102 -34 -60 -35 -68 -11 -55 9 5 31 7 47 4 17 -2 50
-4 75 -3 42 1 44 0 25 -14 -18 -13 -19 -15 -3 -21 10 -4 15 -11 12 -16 -4 -8
43 -5 118 6 37 6 104 49 124 81 17 25 17 26 -13 52 -25 22 -29 31 -22 49 4 13
5 22 1 22 -17 -3 -32 2 -30 9 1 4 -2 17 -6 30 -4 13 -3 28 3 35 7 9 4 16 -10
26 -26 16 -35 8 -14 -12 9 -10 11 -18 5 -22 -5 -3 -10 -1 -10 5 0 6 -5 8 -12
4 -7 -5 -9 -2 -4 7 4 8 1 5 -8 -5 -17 -20 -12 -40 7 -30 7 3 2 -3 -11 -15 -12
-11 -18 -22 -13 -25 5 -4 11 -1 13 6 3 9 6 9 12 0 4 -7 2 -12 -3 -12 -6 0 -11
-5 -11 -11 0 -5 4 -8 9 -4 6 3 6 -6 1 -24 -12 -43 -19 -51 -37 -44 -11 4 -14
3 -9 -5 4 -8 0 -12 -11 -12 -15 0 -16 -2 -3 -10 8 -5 11 -10 5 -10 -5 0 -23
11 -40 25 l-30 25 27 -10 c23 -8 28 -6 34 13 3 12 16 30 28 40 16 15 17 18 4
13 -13 -4 -18 0 -18 15 0 11 -4 18 -9 15 -5 -4 -7 4 -3 16 4 17 2 20 -12 15
-10 -4 -20 -7 -22 -7 -2 0 -4 -7 -4 -16 0 -8 4 -12 10 -9 6 3 7 -1 4 -10 -4
-9 -13 -14 -20 -11 -8 3 -21 -7 -31 -24 -9 -17 -21 -30 -25 -30 -4 0 -8 -8 -8
-18 0 -23 -19 -42 -43 -42 -10 0 -15 -4 -12 -10 3 -5 1 -10 -6 -10 -13 0 -5
75 10 95 5 5 11 24 15 40 5 24 4 27 -5 15 -9 -13 -10 -12 -5 3 3 10 6 21 6 23
0 3 6 2 13 -2 7 -5 7 -2 -2 10 -8 9 -10 16 -4 14 6 -2 11 1 12 5 1 14 31 38
40 33 5 -3 11 1 15 9 3 8 4 15 3 14 -1 0 -11 -4 -23 -9z m37 -143 c-10 -9 -11
-8 -5 6 3 10 9 15 12 12 3 -3 0 -11 -7 -18z"/>
<path d="M3277 4526 c-4 -10 -19 -13 -54 -10 -34 2 -42 1 -28 -6 11 -5 15 -9
8 -9 -19 -1 -4 -28 19 -34 13 -4 17 -10 12 -19 -4 -7 -4 -10 0 -6 4 3 16 -2
26 -12 17 -17 95 -26 133 -14 19 6 24 58 7 69 -6 4 -8 11 -4 17 3 5 -8 3 -24
-6 -37 -19 -46 -20 -36 -5 5 8 2 9 -11 1 -14 -7 -22 -6 -32 3 -15 16 -17 29
-3 20 6 -3 10 1 10 9 0 20 -16 21 -23 2z m-27 -47 c0 -5 -4 -9 -10 -9 -5 0
-10 7 -10 16 0 8 5 12 10 9 6 -3 10 -10 10 -16z"/>
<path d="M4020 4530 c0 -5 6 -10 14 -10 8 0 18 5 21 10 3 6 -3 10 -14 10 -12
0 -21 -4 -21 -10z"/>
<path d="M1155 4520 c3 -5 8 -10 11 -10 2 0 4 5 4 10 0 6 -5 10 -11 10 -5 0
-7 -4 -4 -10z"/>
<path d="M1339 4515 c-1 -8 -2 -21 -3 -27 -2 -21 -30 -37 -56 -31 -17 3 -34
-2 -50 -16 -25 -20 -25 -20 -2 -14 30 7 27 -5 -9 -47 -28 -32 -30 -33 -24 -10
6 20 5 23 -6 13 -7 -7 -13 -30 -14 -50 -2 -54 -11 -68 -56 -88 -30 -14 -42
-16 -51 -7 -7 7 -21 12 -32 12 -12 0 -16 4 -11 8 6 4 11 21 11 37 3 62 8 90
17 103 6 7 7 15 4 18 -8 8 -67 -106 -76 -149 -5 -20 -5 -39 0 -42 4 -3 6 -12
2 -21 -5 -13 -8 -13 -24 2 -15 14 -17 19 -7 26 7 4 10 8 5 8 -4 0 0 16 8 36
19 46 19 47 -4 32 -11 -7 -18 -15 -16 -19 3 -3 -5 -15 -16 -25 -18 -16 -83
-137 -84 -156 0 -3 -11 -21 -25 -40 -63 -84 -94 -143 -85 -158 3 -5 2 -10 -3
-12 -10 -4 -42 -109 -42 -137 0 -12 -11 -33 -25 -47 -30 -30 -34 -45 -5 -19
16 14 23 16 32 7 9 -9 8 -12 -3 -12 -8 0 -27 -12 -42 -27 -31 -34 -57 -160
-35 -174 9 -6 8 -10 -5 -15 -9 -3 -17 -16 -17 -28 0 -11 -7 -45 -15 -75 -18
-68 -30 -171 -17 -153 5 7 15 10 23 7 8 -3 19 5 25 20 10 21 9 25 -9 31 -22 7
-21 7 2 15 32 12 42 3 31 -27 -5 -13 -9 -28 -8 -32 3 -16 -15 -40 -27 -36 -14
6 -57 -35 -49 -47 2 -4 0 -10 -6 -14 -6 -4 -8 -11 -5 -16 3 -5 -1 -23 -9 -41
-23 -51 -24 -74 -3 -70 16 3 17 0 6 -20 -22 -42 -31 -51 -41 -36 -6 9 -8 7 -6
-7 1 -11 0 -25 -4 -30 -3 -6 -9 -26 -13 -45 -5 -29 -2 -37 16 -48 17 -11 23
-11 29 -2 12 19 23 -6 23 -52 0 -44 19 -49 43 -12 12 18 12 23 -5 40 -20 22
-40 91 -23 80 12 -7 23 30 15 51 -5 12 -7 12 -14 1 -6 -9 -9 -9 -9 -1 0 7 10
22 22 34 13 12 17 19 10 15 -6 -4 -12 -2 -12 3 0 6 5 11 10 11 6 0 10 10 10
23 0 18 -2 19 -11 7 -9 -12 -10 -12 -5 3 3 10 6 21 6 24 0 3 6 1 13 -5 9 -8
15 -4 23 13 9 18 9 22 -2 18 -11 -4 -12 1 -5 36 1 2 7 -1 14 -7 17 -14 32 -3
40 30 7 27 -7 49 -16 26 -2 -7 -7 -10 -11 -6 -4 3 -2 16 4 28 7 13 15 19 19
14 11 -15 31 -15 37 1 7 18 25 20 21 3 -1 -6 7 -14 18 -16 17 -4 18 -2 6 12
-11 13 -11 17 3 22 9 3 22 4 29 1 8 -3 20 -1 28 4 12 8 12 10 -1 19 -12 8 -12
10 -1 10 9 0 12 8 9 24 -4 18 1 27 19 35 13 6 31 28 40 49 8 20 27 53 41 72
14 19 18 29 9 21 -25 -20 -21 -8 8 23 14 15 24 35 24 44 -1 15 -2 15 -6 0 -2
-10 -9 -18 -14 -18 -11 0 -4 16 20 43 13 16 13 19 1 27 -8 5 -11 12 -7 16 4 4
20 -7 35 -24 33 -37 42 -40 42 -12 0 13 -5 18 -15 14 -8 -4 -15 -1 -15 6 0 6
10 10 23 8 14 -2 21 -9 21 -21 -1 -12 6 -17 23 -17 14 0 23 -5 21 -11 -2 -6
-6 -9 -9 -7 -8 4 -39 -22 -39 -33 0 -5 7 -9 15 -9 15 0 55 -34 55 -47 2 -28
14 -52 23 -46 7 4 8 0 3 -13 -4 -10 -8 -23 -9 -29 -1 -5 -9 -15 -17 -22 -12
-9 -9 -13 20 -20 32 -9 33 -10 13 -17 -13 -4 -23 -15 -22 -24 0 -11 3 -12 6
-4 8 21 23 13 19 -10 -1 -13 -9 -23 -16 -23 -7 0 -15 -7 -17 -15 -4 -13 -3
-13 6 0 9 13 11 12 11 -5 1 -17 4 -16 25 10 25 31 33 51 15 40 -14 -8 -1 26
18 48 8 9 21 17 29 17 10 0 12 6 8 20 -5 16 -2 20 17 18 18 -2 22 1 20 16 -2
11 1 15 7 11 6 -3 20 -3 31 0 16 5 18 10 10 25 -7 13 -6 19 6 24 10 4 13 2 8
-7 -5 -7 -1 -7 10 2 10 9 13 17 6 21 -6 4 -5 13 5 26 13 16 14 16 9 2 -3 -10
-1 -18 5 -18 6 0 11 9 11 20 0 11 4 20 10 20 5 0 15 19 21 43 12 39 14 60 20
197 1 30 6 63 11 73 5 11 5 17 -2 17 -5 0 -10 -5 -10 -12 0 -6 -2 -9 -5 -6 -9
9 6 38 19 38 15 0 36 42 36 70 0 11 4 20 9 20 12 0 56 46 57 59 1 6 2 17 3 24
1 17 39 57 53 57 6 0 1 -12 -13 -27 -13 -15 -16 -21 -6 -14 9 7 17 10 17 6 0
-4 6 -2 13 4 8 6 16 8 20 5 3 -3 10 3 16 14 8 15 8 22 -2 25 -6 3 -1 6 13 6
18 1 21 4 11 10 -7 5 -11 14 -7 20 5 7 1 9 -11 5 -11 -3 -9 0 5 8 12 8 20 17
16 21 -3 3 0 13 9 21 16 17 57 18 51 1 -2 -5 3 -19 11 -29 14 -19 16 -19 53
-2 44 20 138 108 148 138 13 43 -65 49 -108 7 -23 -21 -23 -21 -1 -10 31 16
35 1 8 -31 l-23 -27 -4 30 c-5 32 5 50 37 67 11 6 14 12 8 12 -9 0 -10 7 -3
28 9 25 9 25 -4 8 -8 -10 -20 -16 -26 -14 -13 4 13 37 45 57 17 10 14 11 -19
6 -46 -8 -90 -37 -76 -51 6 -6 5 -15 0 -24 -9 -13 -11 -13 -20 0 -6 10 -10 11
-10 3 0 -7 -4 -13 -10 -13 -5 0 -7 8 -4 18 5 14 3 14 -10 -2 -9 -11 -16 -30
-16 -43 0 -13 -4 -23 -9 -23 -10 0 -36 -64 -36 -88 0 -8 -8 -20 -18 -27 -10
-7 -18 -16 -17 -19 1 -9 -36 -56 -44 -56 -4 0 -4 11 -2 25 3 14 0 25 -6 25 -6
0 -8 10 -4 25 4 14 2 25 -4 25 -5 0 -9 3 -7 8 1 4 -2 7 -8 7 -5 0 -12 13 -15
28 l-5 28 -22 -20 c-12 -12 -27 -21 -33 -21 -5 0 -10 -7 -10 -15 0 -9 9 -15
21 -15 21 0 21 0 2 -17 -10 -10 -17 -17 -14 -16 7 5 33 -38 27 -44 -3 -4 -6 0
-6 8 0 11 -2 11 -10 -1 -8 -13 -10 -12 -10 3 0 9 -4 17 -10 17 -5 0 -9 -6 -7
-12 3 -17 30 -38 39 -32 4 3 5 -2 2 -11 -4 -9 -2 -15 4 -13 11 3 12 -2 11 -29
0 -11 -3 -13 -6 -5 -6 15 -55 16 -70 1 -13 -13 -33 -4 -33 15 0 8 7 19 15 26
8 7 15 17 15 22 0 7 -4 7 -12 0 -7 -5 -24 -12 -38 -14 -17 -2 -24 -8 -22 -20
1 -9 -2 -19 -8 -23 -5 -3 -10 -17 -10 -30 0 -13 -4 -27 -10 -30 -17 -11 -11
-45 8 -45 14 0 17 8 14 48 -3 47 -3 47 12 20 9 -18 13 -41 9 -63 -6 -37 -12
-42 -30 -24 -7 7 -17 8 -25 3 -7 -5 -23 -7 -35 -6 -11 2 -24 -2 -28 -7 -4 -7
3 -11 17 -11 13 0 34 -3 47 -7 l23 -6 -28 -13 c-16 -8 -20 -12 -8 -9 14 4 21
0 21 -9 0 -9 -4 -13 -8 -10 -4 2 -10 -4 -13 -13 -3 -11 -17 -19 -31 -19 -21
-2 -24 1 -14 12 10 12 9 13 -4 8 -12 -4 -17 4 -21 38 -3 24 -5 61 -5 83 1 88
-5 136 -17 145 -6 6 -10 21 -7 33 4 21 4 22 -11 3 -21 -26 -20 -43 4 -73 16
-21 20 -40 19 -97 0 -39 -3 -65 -6 -58 -6 16 -32 15 -63 -4 -14 -8 -17 -13 -8
-10 10 3 20 2 22 -3 8 -13 -38 -76 -59 -79 -11 -2 -24 -5 -30 -5 -14 -3 -25
-19 -25 -41 0 -12 5 -16 15 -12 8 3 15 3 15 0 0 -3 -13 -10 -30 -15 -16 -6
-30 -15 -30 -21 0 -5 13 -7 30 -3 24 5 30 3 30 -10 0 -12 -6 -16 -20 -12 -14
3 -24 -1 -31 -15 -6 -11 -9 -20 -7 -21 2 -1 13 -8 26 -15 13 -7 22 -8 22 -2 0
5 8 10 17 10 15 0 14 -2 -3 -19 -10 -10 -20 -14 -22 -10 -2 5 -18 8 -35 8 -22
-1 -26 -3 -12 -6 20 -5 35 -20 35 -36 0 -4 -9 -3 -19 3 -11 5 -31 10 -45 10
-17 0 -27 7 -32 22 -6 21 -7 21 -22 2 -12 -16 -14 -16 -9 -1 4 9 3 17 -2 17
-5 0 -12 11 -15 25 -4 14 -13 25 -21 25 -8 0 -15 5 -15 11 0 6 -7 9 -15 5 -8
-3 -15 -1 -15 4 0 23 -17 7 -34 -30 -23 -53 -10 -72 45 -65 25 3 42 0 51 -10
41 -46 41 -45 6 -59 -18 -8 -42 -24 -53 -37 l-20 -22 22 14 c12 7 25 10 29 6
11 -10 -17 -38 -35 -35 -12 2 -17 -7 -19 -39 -2 -23 1 -51 7 -61 8 -14 6 -19
-5 -19 -7 0 -14 4 -14 9 0 13 -80 5 -81 -7 0 -5 15 -13 33 -16 l33 -6 -25 -11
c-22 -9 -22 -11 -5 -12 20 -1 20 -1 1 -15 -25 -19 -37 -19 -30 -1 3 8 -3 23
-13 34 -10 10 -19 25 -21 33 -4 17 -23 30 -34 23 -4 -3 -8 2 -8 10 0 10 6 13
15 10 11 -5 15 2 15 27 1 44 22 122 38 141 7 9 10 27 6 47 -5 23 -9 29 -15 19
-7 -10 -9 -9 -9 4 0 23 17 31 24 12 6 -15 8 -15 26 1 11 10 20 22 20 27 0 5 7
16 16 25 8 9 14 27 12 41 -2 15 3 27 11 30 10 3 12 0 7 -13 -7 -19 11 -48 25
-39 5 3 9 0 9 -5 0 -6 5 -11 11 -11 13 0 39 -25 39 -39 0 -5 4 -12 8 -15 12
-7 11 27 0 35 -5 3 -11 25 -14 49 -3 24 -6 46 -6 49 -1 3 4 19 10 34 7 16 12
32 12 36 0 5 8 26 17 47 9 22 16 42 15 47 -1 4 2 7 8 7 5 0 10 5 10 10 0 6 9
20 20 32 11 12 20 30 20 40 0 10 6 21 14 24 13 5 31 49 28 67 -1 4 5 10 15 14
15 6 15 7 1 12 -14 5 -14 9 4 31 13 16 19 18 15 8 -4 -12 -1 -18 7 -18 8 0 13
7 12 16 -1 22 33 27 41 7 5 -13 8 -12 14 5 5 12 13 22 19 22 6 0 8 -5 4 -11
-5 -8 -1 -8 14 0 16 9 21 7 25 -8 2 -10 12 -18 22 -18 14 0 9 9 -18 34 -21 18
-37 35 -37 38 0 9 55 -19 63 -32 11 -18 51 -17 44 1 -3 7 0 13 6 13 48 -1 78
5 75 14 -6 18 -98 17 -109 -1 -4 -8 -9 -10 -9 -4 0 6 3 14 7 18 4 3 8 13 9 22
2 13 0 13 -14 2 -14 -11 -15 -10 -9 5 4 10 7 20 7 23 0 2 7 1 15 -2 23 -9 45
15 43 45 -1 14 8 42 19 61 11 19 18 40 16 47 -2 6 1 14 6 18 14 8 14 25 1 25
-5 0 -11 -7 -11 -15z m-324 -315 c3 -5 1 -10 -4 -10 -6 0 -11 5 -11 10 0 6 2
10 4 10 3 0 8 -4 11 -10z m-77 -93 c29 10 6 -72 -25 -86 -27 -12 -53 -66 -53
-110 0 -27 -2 -29 -27 -22 -16 4 -34 19 -41 34 -12 25 -10 32 17 80 49 83 60
95 72 77 8 -11 9 -8 5 13 -4 16 -2 27 4 27 6 0 8 5 5 10 -5 8 -12 7 -23 -2
-13 -11 -15 -11 -7 2 23 41 28 42 44 7 9 -19 22 -32 29 -30z m83 39 c-16 -19
-48 -26 -48 -10 0 7 4 11 9 8 4 -3 16 0 25 5 24 14 27 13 14 -3z m355 -106
c12 0 12 -4 4 -20 -15 -28 -30 -16 -29 23 1 18 3 24 6 15 2 -10 11 -18 19 -18z
m-416 -19 c0 -5 -9 -13 -20 -16 -11 -3 -20 -15 -20 -25 0 -11 -9 -24 -20 -30
-17 -9 -20 -8 -20 7 1 24 19 46 50 60 32 15 30 15 30 4z m450 -22 c-12 -22
-30 -25 -30 -6 0 17 21 38 32 31 4 -3 3 -14 -2 -25z m60 11 c-6 -11 -13 -20
-16 -20 -2 0 0 9 6 20 6 11 13 20 16 20 2 0 0 -9 -6 -20z m-37 -60 c-10 -17
-33 -45 -52 -63 -26 -25 -23 -18 15 30 54 70 64 78 37 33z m-596 -101 c-7 -11
-20 -22 -29 -25 -10 -3 -18 -10 -18 -15 0 -5 -5 -9 -11 -9 -8 0 -8 4 -1 13 11
13 12 17 12 45 0 15 6 18 29 14 27 -4 29 -6 18 -23z m320 -46 c-30 -58 -63
-100 -72 -91 -3 3 9 26 28 51 19 25 41 59 48 76 8 17 15 27 17 22 2 -5 -8 -31
-21 -58z m-68 -35 c1 -5 -3 -8 -9 -8 -5 0 -10 12 -9 28 0 24 1 25 9 7 5 -11 9
-23 9 -27z m152 18 c17 2 34 6 39 9 5 3 14 -4 20 -15 6 -11 18 -20 28 -20 13
0 14 -2 3 -9 -7 -5 -10 -14 -7 -20 4 -6 12 -9 17 -6 13 9 11 -19 -3 -33 -9 -9
-9 -17 2 -36 15 -29 8 -56 -16 -56 -11 0 -14 -5 -10 -17 7 -17 -29 -63 -49
-63 -8 0 -10 -10 -7 -25 4 -23 1 -25 -32 -25 -47 0 -50 -27 -3 -32 36 -3 43
-24 13 -42 -14 -8 -20 -8 -23 2 -3 9 -12 6 -31 -9 l-27 -21 -14 22 c-19 29
-21 44 -25 173 -3 84 -1 107 10 107 7 0 16 5 20 12 5 8 0 9 -15 5 -14 -3 -21
-1 -18 6 2 7 9 13 15 13 7 1 14 3 17 4 3 1 10 3 16 4 6 0 19 12 27 26 11 18
12 21 2 13 -19 -18 -29 -16 -26 3 3 19 39 49 44 36 1 -5 16 -8 33 -6z m-471
-31 c-7 -9 -15 -13 -19 -10 -3 3 1 10 9 15 21 14 24 12 10 -5z m-17 -50 c-3
-9 -8 -14 -10 -11 -3 3 -2 9 2 15 9 16 15 13 8 -4z m634 -11 c-3 -3 -12 -4
-19 -1 -8 3 -5 6 6 6 11 1 17 -2 13 -5z m-583 -42 c3 -5 -1 -9 -9 -9 -8 0 -12
4 -9 9 3 4 7 8 9 8 2 0 6 -4 9 -8z m-143 -33 c-9 -22 -10 -22 -10 -3 -1 11 2
24 6 27 12 12 14 0 4 -24z m440 4 c13 -16 12 -17 -3 -4 -10 7 -18 15 -18 17 0
8 8 3 21 -13z m-34 -46 c-3 -8 1 -14 9 -14 9 0 13 6 9 16 -5 12 -3 13 5 5 10
-10 4 -44 -9 -44 -17 1 -33 20 -28 34 4 9 9 16 13 16 3 0 4 -6 1 -13z m281
-22 c-6 -14 -13 -23 -15 -21 -5 5 15 46 22 46 3 0 -1 -11 -7 -25z m-43 -79
c-27 -35 -44 -49 -29 -23 19 31 48 66 52 63 2 -3 -8 -21 -23 -40z m-620 -240
c8 4 15 2 15 -4 0 -5 -10 -12 -23 -14 -19 -4 -23 0 -25 21 -1 22 0 23 9 9 5
-10 16 -15 24 -12z m-94 -109 c-24 -55 -55 -67 -41 -16 13 46 40 83 51 72 6
-6 2 -27 -10 -56z m-26 -67 c-3 -5 -14 -10 -23 -10 -15 0 -15 2 -2 10 20 13
33 13 25 0z m-50 -180 c3 -5 1 -10 -4 -10 -6 0 -11 5 -11 10 0 6 2 10 4 10 3
0 8 -4 11 -10z"/>
<path d="M1270 3770 c0 -5 5 -10 10 -10 6 0 10 5 10 10 0 6 -4 10 -10 10 -5 0
-10 -4 -10 -10z"/>
<path d="M1227 3579 c7 -7 15 -10 18 -7 3 3 -2 9 -12 12 -14 6 -15 5 -6 -5z"/>
<path d="M1215 3540 c-4 -12 -4 -24 -1 -27 3 -4 6 0 7 8 0 8 4 6 8 -5 7 -19 8
-19 13 2 8 30 -18 51 -27 22z"/>
<path d="M2389 4433 c-13 -16 -12 -17 4 -4 16 13 21 21 13 21 -2 0 -10 -8 -17
-17z"/>
<path d="M3630 4404 c0 -3 5 -14 11 -25 7 -13 7 -25 1 -32 -19 -23 -8 -61 19
-71 45 -15 62 -2 54 42 -4 20 -11 40 -17 43 -5 3 -9 10 -8 14 1 4 -11 14 -26
21 -29 15 -34 17 -34 8z"/>
<path d="M3600 4385 c-11 -13 -10 -14 5 -9 15 6 17 3 11 -19 -7 -31 -1 -35 13
-9 6 12 5 23 -4 35 -11 15 -14 16 -25 2z"/>
<path d="M3986 4325 c3 -8 10 -13 14 -10 5 3 11 -3 13 -12 4 -16 5 -17 6 -1 0
10 -8 22 -19 28 -16 9 -18 8 -14 -5z"/>
<path d="M1522 4314 c-7 -8 -8 -14 -3 -14 10 0 25 19 20 25 -2 1 -10 -3 -17
-11z"/>
<path d="M4440 4260 c0 -5 7 -10 16 -10 8 0 12 5 9 10 -3 6 -10 10 -16 10 -5
0 -9 -4 -9 -10z"/>
<path d="M4075 4251 c-3 -5 -2 -12 3 -15 5 -3 9 1 9 9 0 17 -3 19 -12 6z"/>
<path d="M4362 4245 c-17 -19 -1 -19 24 0 14 11 15 14 4 14 -8 0 -21 -6 -28
-14z"/>
<path d="M1965 4241 c-3 -5 -2 -12 3 -15 5 -3 9 1 9 9 0 17 -3 19 -12 6z"/>
<path d="M1882 4214 c-19 -13 -21 -18 -10 -32 11 -13 10 -15 -11 -9 -14 3 -31
1 -39 -6 -8 -7 -38 -22 -66 -35 -28 -13 -41 -21 -30 -19 17 4 20 1 16 -15 -5
-19 -3 -19 19 -7 13 7 27 13 31 14 16 1 19 15 3 15 -12 0 -4 8 20 20 47 24 49
24 41 5 -5 -13 -1 -12 18 2 18 13 21 21 14 31 -6 7 -9 14 -7 17 6 6 80 -20 88
-31 3 -5 15 -8 26 -8 11 1 44 2 73 3 45 1 51 3 40 15 -9 10 -18 11 -32 4 -13
-7 -16 -7 -12 1 10 15 -7 14 -23 -1 -11 -11 -13 -10 -8 3 4 11 -3 20 -19 28
-20 9 -26 8 -36 -8 -13 -21 -35 -17 -58 11 -14 17 -17 17 -38 2z"/>
<path d="M4125 4205 c17 -14 31 -20 33 -15 5 15 -24 40 -45 40 -14 -1 -12 -6
12 -25z"/>
<path d="M1407 4186 c-4 -10 -1 -13 9 -9 15 6 19 23 5 23 -5 0 -11 -7 -14 -14z"/>
<path d="M2145 4180 c-18 -20 -18 -20 6 -16 13 3 27 5 31 5 10 1 -2 31 -12 31
-4 0 -15 -9 -25 -20z"/>
<path d="M4145 4100 c-3 -5 -1 -10 4 -10 6 0 11 5 11 10 0 6 -2 10 -4 10 -3 0
-8 -4 -11 -10z"/>
<path d="M1700 4093 c-8 -2 -22 -7 -30 -10 -8 -4 -18 -7 -22 -7 -3 -1 -10 -5
-15 -9 -14 -15 71 5 87 19 14 14 8 17 -20 7z"/>
<path d="M1438 4073 c7 -3 16 -2 19 1 4 3 -2 6 -13 5 -11 0 -14 -3 -6 -6z"/>
<path d="M2012 4044 c-52 -26 -102 -82 -102 -114 0 -9 -5 -21 -11 -27 -6 -6
-11 -45 -11 -88 0 -63 3 -80 19 -94 58 -54 137 -55 216 -3 29 18 60 43 70 55
26 33 59 97 55 109 -2 6 -12 -10 -22 -35 -10 -26 -21 -47 -26 -47 -4 0 1 17
11 37 19 38 26 109 10 99 -5 -3 -12 5 -15 18 -5 20 -12 24 -38 22 -18 -2 -39
-5 -47 -7 -7 -2 -16 2 -18 10 -4 9 0 11 16 6 12 -4 21 -2 21 4 0 7 8 7 24 1
31 -12 56 12 34 33 -55 54 -108 60 -186 21z m-2 -153 c0 -5 -6 -14 -14 -20 -8
-7 -13 -23 -11 -36 1 -14 -2 -25 -6 -25 -12 0 -11 47 1 71 11 19 30 26 30 10z
m60 -15 c0 -2 -8 -10 -17 -17 -16 -13 -17 -12 -4 4 13 16 21 21 21 13z m30 -9
c0 -2 -10 -12 -22 -23 l-23 -19 19 23 c18 21 26 27 26 19z"/>
<path d="M1170 4040 c0 -8 5 -22 10 -30 9 -13 10 -13 10 0 0 8 -5 22 -10 30
-9 13 -10 13 -10 0z"/>
<path d="M1687 3964 c-15 -8 -25 -19 -22 -24 4 -6 -1 -10 -10 -10 -10 0 -14 5
-10 13 4 6 -1 3 -9 -7 -9 -11 -16 -23 -16 -28 0 -4 -6 -8 -13 -8 -16 0 -57
-45 -57 -63 0 -6 -7 -25 -15 -41 -21 -41 -35 -105 -24 -112 5 -3 9 -14 9 -25
0 -13 5 -18 13 -14 6 4 3 -1 -8 -10 l-20 -17 20 2 c38 4 56 0 49 -11 -3 -6
-15 -8 -26 -6 -12 4 -18 1 -15 -6 5 -17 67 -20 103 -5 46 19 98 69 130 124 26
44 29 59 30 139 1 74 -3 93 -17 107 -15 14 -18 15 -23 1 -3 -8 -3 -19 0 -25 4
-5 -4 -5 -16 2 -20 10 -20 13 -5 24 15 11 15 12 -2 13 -10 1 -31 -5 -46 -13z
m58 -54 c3 -5 1 -10 -4 -10 -6 0 -11 5 -11 10 0 6 2 10 4 10 3 0 8 -4 11 -10z
m-54 -13 c-5 -5 -7 -16 -4 -23 3 -9 -2 -14 -16 -14 -12 0 -21 4 -21 9 0 23 13
40 31 38 11 -1 15 -5 10 -10z m-46 -55 c-3 -3 -11 0 -18 7 -9 10 -8 11 6 5 10
-3 15 -9 12 -12z m-65 -32 c0 -5 -2 -10 -4 -10 -3 0 -8 5 -11 10 -3 6 -1 10 4
10 6 0 11 -4 11 -10z m50 -21 c-7 -11 -14 -18 -17 -15 -8 8 5 36 17 36 7 0 7
-6 0 -21z m30 -9 c0 -5 -5 -10 -11 -10 -5 0 -7 5 -4 10 3 6 8 10 11 10 2 0 4
-4 4 -10z m-55 -20 c3 -5 -3 -10 -15 -10 -12 0 -18 5 -15 10 3 6 10 10 15 10
5 0 12 -4 15 -10z m-61 -15 c-4 -8 -8 -15 -10 -15 -2 0 -4 7 -4 15 0 8 4 15
10 15 5 0 7 -7 4 -15z m46 -45 c0 -5 -2 -10 -4 -10 -3 0 -8 5 -11 10 -3 6 -1
10 4 10 6 0 11 -4 11 -10z m140 -3 c0 -2 -15 -16 -32 -33 l-33 -29 29 33 c28
30 36 37 36 29z m-74 -66 c-3 -5 -17 -11 -32 -14 -29 -5 -20 9 11 16 11 3 21
5 23 6 2 0 1 -3 -2 -8z"/>
<path d="M2240 3920 c0 -5 5 -10 11 -10 5 0 7 5 4 10 -3 6 -8 10 -11 10 -2 0
-4 -4 -4 -10z"/>
<path d="M1040 3880 c0 -5 5 -10 11 -10 5 0 7 5 4 10 -3 6 -8 10 -11 10 -2 0
-4 -4 -4 -10z"/>
<path d="M2165 3612 c-69 -30 -87 -42 -81 -59 5 -13 4 -14 -8 -4 -11 10 -20 1
-49 -46 -34 -57 -34 -60 -30 -143 6 -94 14 -108 78 -134 41 -17 105 -21 133
-8 63 31 77 40 74 52 -2 7 3 10 12 7 7 -3 24 5 37 19 12 13 19 24 15 24 -4 0
-16 -10 -27 -22 -10 -13 -18 -18 -19 -12 0 12 44 56 51 50 2 -2 5 11 6 30 1
18 8 43 16 54 18 26 11 64 -26 142 -18 37 -34 58 -49 62 -39 10 -91 6 -133
-12z m55 -211 c-16 -31 -32 -36 -18 -7 6 14 15 26 20 26 5 0 4 -9 -2 -19z
m-110 -25 c0 -14 -4 -27 -9 -30 -10 -6 -23 33 -15 46 10 16 24 7 24 -16z"/>
<path d="M740 3551 c8 -6 18 -7 24 -4 5 4 7 -1 3 -11 -5 -13 -2 -17 10 -14 10
2 19 11 21 21 3 14 -4 17 -35 17 -27 0 -34 -3 -23 -9z"/>
<path d="M956 3523 c-6 -14 -5 -15 5 -6 7 7 10 15 7 18 -3 3 -9 -2 -12 -12z"/>
<path d="M1747 3500 c-42 -6 -119 -62 -137 -100 -7 -14 -14 -71 -17 -127 l-5
-101 38 -40 c22 -22 49 -43 61 -46 27 -8 93 22 74 34 -9 5 -8 9 4 13 9 4 13 3
10 -3 -12 -19 14 -10 44 16 48 40 74 107 75 191 1 57 -3 77 -20 99 -33 45 -83
70 -127 64z m49 -52 c-13 -7 -14 -13 -6 -22 7 -10 6 -17 -5 -26 -9 -7 -18 -10
-22 -7 -3 4 -12 2 -19 -4 -8 -6 -21 -9 -29 -5 -17 6 -21 36 -5 36 6 0 10 7 10
15 0 12 3 13 19 3 15 -9 23 -9 35 1 9 7 13 17 10 22 -3 5 2 6 12 2 15 -6 15
-7 0 -15z m81 -130 c-3 -8 -6 -5 -6 6 -1 11 2 17 5 13 3 -3 4 -12 1 -19z
m-126 -51 c-13 -13 -15 1 -4 30 7 17 8 17 11 -1 2 -10 -1 -23 -7 -29z m109
-36 c0 -5 -9 -19 -20 -32 l-21 -24 16 33 c15 31 25 41 25 23z m-174 -110 c5
-5 18 -11 29 -14 12 -3 5 -5 -16 -6 -26 -1 -36 3 -36 14 0 17 9 19 23 6z"/>
<path d="M960 3473 c0 -6 8 -17 18 -24 16 -13 16 -13 2 6 -8 11 -16 22 -17 24
-2 2 -3 0 -3 -6z"/>
<path d="M1427 3426 c5 -15 3 -18 -10 -13 -11 4 -15 0 -14 -14 1 -12 9 -19 22
-19 16 0 17 2 5 10 -8 5 -10 10 -4 10 16 0 54 -44 54 -63 0 -15 -2 -15 -20 3
-25 25 -43 26 -38 3 2 -10 9 -17 15 -16 6 1 19 -7 29 -19 11 -12 13 -18 5 -13
-11 6 -13 2 -7 -21 5 -25 5 -27 -5 -9 -7 11 -13 22 -15 23 -6 8 -44 -10 -39
-19 4 -5 -1 -9 -9 -9 -19 0 -62 -64 -71 -106 -5 -25 -1 -38 17 -59 l23 -27 29
23 c16 12 37 41 47 63 10 23 19 34 19 25 0 -29 -57 -105 -89 -119 -23 -9 -29
-16 -21 -24 8 -8 13 -7 19 3 5 7 13 11 19 7 6 -3 13 2 17 13 3 10 15 21 25 24
11 3 20 12 20 21 0 9 6 27 14 39 29 44 41 227 16 227 -5 0 -10 10 -12 23 -2
12 -6 20 -10 17 -4 -3 -14 4 -23 15 -14 19 -15 19 -8 1z m-37 -199 c0 -2 -10
-12 -22 -23 l-23 -19 19 23 c18 21 26 27 26 19z"/>
<path d="M1315 3364 c-14 -11 -16 -18 -7 -21 6 -3 10 -9 6 -14 -9 -15 3 -10
17 8 10 11 10 14 2 9 -16 -9 -17 6 -1 22 17 17 7 14 -17 -4z"/>
<path d="M4745 3360 c4 -14 14 -32 21 -41 8 -8 14 -20 14 -26 0 -6 7 -13 15
-17 15 -5 22 10 7 16 -5 2 -21 23 -36 48 -17 28 -25 35 -21 20z"/>
<path d="M1395 3350 c3 -5 8 -10 11 -10 2 0 4 5 4 10 0 6 -5 10 -11 10 -5 0
-7 -4 -4 -10z"/>
<path d="M1000 3261 c0 -5 5 -13 10 -16 6 -3 10 -2 10 4 0 5 -4 13 -10 16 -5
3 -10 2 -10 -4z"/>
<path d="M1050 3213 c0 -46 -4 -49 -57 -34 -28 8 -33 7 -38 -11 -9 -25 -9 -25
48 -20 44 4 49 7 67 43 25 48 25 65 0 65 -17 0 -20 -7 -20 -43z"/>
<path d="M752 3193 c13 -13 20 -14 31 -5 8 7 17 9 20 5 4 -3 7 -1 7 5 0 16
-27 15 -33 0 -4 -10 -6 -10 -6 0 -1 6 -9 12 -18 12 -16 0 -16 -1 -1 -17z"/>
<path d="M800 3154 c14 -36 12 -39 -9 -20 -10 10 -21 13 -24 9 -7 -12 23 -74
39 -80 15 -6 -13 -43 -33 -43 -14 0 -53 -39 -53 -54 0 -5 6 -1 14 10 8 10 18
16 22 12 9 -10 -26 -49 -37 -43 -4 3 -10 -8 -14 -23 -6 -28 -8 -29 -43 -21
-20 4 -47 11 -59 14 -14 5 -23 3 -23 -3 0 -6 26 -16 58 -23 61 -13 96 -35 88
-55 -3 -7 1 -18 9 -24 11 -9 12 -5 5 24 -6 26 -4 39 6 47 8 6 14 18 14 26 0 8
5 11 10 8 6 -4 8 -15 5 -26 -4 -13 -2 -19 9 -19 9 0 16 7 16 15 0 8 4 15 8 15
14 0 36 81 36 132 1 33 -3 48 -12 48 -7 0 -10 5 -7 11 11 16 -4 76 -20 83 -11
4 -12 0 -5 -20z"/>
<path d="M1096 3172 c-3 -4 4 -9 15 -9 23 -2 25 3 4 10 -8 4 -16 3 -19 -1z"/>
<path d="M686 3161 c-3 -5 1 -11 9 -15 8 -3 15 -1 15 5 0 6 5 7 12 3 7 -4 8
-3 4 4 -9 14 -33 16 -40 3z"/>
<path d="M1029 3093 l-24 -27 33 23 c32 23 39 31 24 31 -5 0 -19 -12 -33 -27z"/>
<path d="M946 3062 c-13 -13 -16 -14 -16 -2 0 9 -5 8 -15 -6 -8 -10 -15 -15
-15 -10 0 5 -8 2 -17 -5 -15 -12 -16 -12 -10 4 4 10 3 16 -2 12 -11 -6 -10
-45 1 -45 4 0 10 5 13 10 3 6 11 10 17 10 7 0 7 -5 -1 -14 -9 -10 -8 -15 4
-20 10 -3 15 1 15 12 0 19 18 42 33 42 5 0 6 -8 3 -17 -5 -14 -2 -14 12 3 9
11 24 18 31 16 8 -3 11 0 8 5 -12 19 -45 21 -61 5z"/>
<path d="M4900 3045 c0 -2 10 -23 21 -45 17 -32 24 -38 35 -29 11 9 10 16 -9
39 -20 26 -47 46 -47 35z"/>
<path d="M995 3030 c3 -5 8 -10 11 -10 2 0 4 5 4 10 0 6 -5 10 -11 10 -5 0 -7
-4 -4 -10z"/>
<path d="M1310 3026 c0 -2 7 -7 16 -10 8 -3 12 -2 9 4 -6 10 -25 14 -25 6z"/>
<path d="M945 3000 c-3 -5 -2 -10 4 -10 5 0 13 5 16 10 3 6 2 10 -4 10 -5 0
-13 -4 -16 -10z"/>
<path d="M963 2985 c-17 -7 -33 -11 -36 -9 -2 2 -10 -2 -17 -11 -10 -13 -10
-19 4 -33 9 -10 16 -29 16 -43 1 -21 2 -22 10 -7 6 9 8 33 6 52 -3 20 -1 36 2
37 38 4 60 14 51 23 -2 2 -18 -2 -36 -9z m-28 -25 c3 -5 -1 -10 -10 -10 -9 0
-13 5 -10 10 3 6 8 10 10 10 2 0 7 -4 10 -10z"/>
<path d="M1180 2940 c0 -5 5 -10 11 -10 5 0 7 5 4 10 -3 6 -8 10 -11 10 -2 0
-4 -4 -4 -10z"/>
<path d="M1130 2920 c-10 -18 -9 -22 10 -27 13 -4 23 -16 27 -34 7 -36 27 -38
29 -4 1 14 -2 22 -7 20 -5 -3 -11 5 -15 19 -10 40 -30 52 -44 26z"/>
<path d="M1523 2906 c5 -12 0 -13 -25 -5 -40 11 -47 4 -21 -18 11 -10 23 -28
27 -40 6 -19 4 -22 -21 -20 -19 1 -27 -2 -25 -12 2 -7 -3 -21 -11 -30 -8 -9
-19 -30 -26 -48 -15 -36 -22 -135 -9 -127 4 3 8 1 8 -5 0 -6 -16 -13 -35 -17
-35 -6 -35 -7 -19 -26 13 -14 25 -17 47 -12 25 5 29 3 24 -9 -4 -11 -2 -14 9
-10 7 3 14 0 14 -6 0 -11 37 12 87 53 14 12 25 35 29 62 3 24 10 44 15 44 5 0
9 7 9 15 0 8 -4 15 -10 15 -5 0 -10 8 -10 18 0 14 2 15 10 2 7 -11 10 -2 10
33 0 31 -6 53 -17 65 -10 10 -19 29 -21 42 -3 26 -19 50 -34 50 -6 0 -8 -6 -5
-14z m26 -105 c-1 -13 -2 -13 -6 2 -2 9 -9 17 -14 17 -5 0 -9 5 -9 11 0 8 5 8
15 -1 8 -7 14 -20 14 -29z m-89 -65 c0 -8 -7 -16 -15 -20 -13 -4 -14 -2 -5 14
13 23 20 26 20 6z m105 -63 c-8 -44 -26 -80 -55 -110 -21 -24 -50 -31 -50 -13
0 6 6 10 14 10 24 0 74 66 81 109 4 23 9 41 12 41 3 0 2 -17 -2 -37z"/>
<path d="M888 2889 c-9 -12 -13 -29 -10 -41 5 -20 5 -20 23 3 31 40 18 76 -13
38z"/>
<path d="M1210 2855 c-2 -16 -2 -33 -1 -37 0 -4 -7 -4 -16 -1 -13 5 -15 2 -11
-15 5 -18 2 -22 -17 -22 -55 0 -115 -93 -99 -154 5 -22 2 -26 -23 -31 -46 -11
-53 -14 -53 -26 0 -7 9 -9 28 -4 15 4 38 9 52 11 14 1 40 19 58 40 17 21 32
33 32 28 0 -20 -76 -95 -97 -97 -14 -1 -19 -5 -14 -10 15 -15 87 18 83 37 -2
9 2 16 8 16 5 0 10 6 10 14 0 7 7 19 15 26 17 14 21 45 4 34 -7 -4 -10 -1 -7
7 3 8 10 13 16 12 5 -1 8 7 5 18 -4 13 -1 19 8 17 10 -2 14 6 13 27 0 17 3 32
7 35 11 8 17 63 8 85 -6 17 -8 16 -9 -10z m-82 -125 c-13 -21 -28 -27 -28 -10
0 5 8 14 18 19 23 14 24 14 10 -9z"/>
<path d="M755 2860 c-10 -17 12 -37 25 -24 8 8 6 15 -4 23 -10 9 -16 9 -21 1z"/>
<path d="M914 2825 c0 -19 3 -35 7 -35 4 0 9 16 11 35 2 21 0 35 -7 35 -6 0
-11 -16 -11 -35z"/>
<path d="M1340 2798 c0 -10 -4 -18 -9 -18 -5 0 -9 -6 -8 -12 1 -36 -4 -59 -12
-53 -5 3 -12 1 -16 -4 -3 -5 0 -13 7 -18 7 -4 13 -21 13 -38 0 -23 6 -31 25
-36 14 -4 19 -7 13 -8 -21 -2 -15 -17 7 -18 17 -2 19 3 14 25 -4 15 -7 30 -8
34 0 4 8 14 19 22 19 15 19 15 1 16 -18 0 -18 1 -1 20 12 13 14 20 5 20 -6 0
-10 6 -7 14 7 17 -16 39 -28 28 -5 -4 -6 -2 -2 3 3 6 2 17 -4 25 -7 13 -9 12
-9 -2z m20 -98 c0 -5 -5 -10 -11 -10 -5 0 -7 5 -4 10 3 6 8 10 11 10 2 0 4 -4
4 -10z"/>
<path d="M1425 2800 c-3 -5 -1 -10 4 -10 6 0 11 5 11 10 0 6 -2 10 -4 10 -3 0
-8 -4 -11 -10z"/>
<path d="M617 2793 c-7 -12 19 -28 41 -24 6 1 12 -2 12 -8 0 -5 -6 -12 -12
-14 -10 -4 -10 -6 0 -6 19 -1 27 30 11 40 -8 5 -19 7 -26 4 -6 -2 -13 1 -16 8
-2 8 -5 8 -10 0z"/>
<path d="M920 2750 c0 -5 5 -10 10 -10 6 0 10 5 10 10 0 6 -4 10 -10 10 -5 0
-10 -4 -10 -10z"/>
<path d="M915 2719 c-5 -5 -19 -16 -30 -24 -16 -12 -16 -14 -2 -9 20 7 22 -8
6 -37 -6 -12 -17 -18 -25 -15 -17 7 -29 -33 -20 -69 9 -33 21 -32 36 6 9 21
15 26 21 18 5 -9 10 -5 14 13 4 15 4 31 1 37 -3 5 -2 11 3 13 12 4 26 78 15
78 -5 -1 -13 -5 -19 -11z"/>
<path d="M540 2710 c0 -5 7 -7 15 -4 8 4 15 8 15 10 0 2 -7 4 -15 4 -8 0 -15
-4 -15 -10z"/>
<path d="M548 2689 c-10 -5 -20 -26 -24 -45 -6 -34 -8 -35 -39 -30 -19 4 -36
2 -40 -4 -4 -6 7 -13 25 -17 25 -4 31 -10 27 -24 -5 -17 -2 -17 23 4 29 22 40
43 18 32 -7 -4 -6 -1 2 7 8 7 14 24 12 37 -2 15 0 21 7 17 6 -4 11 -16 11 -26
0 -10 5 -22 10 -25 6 -4 10 -3 9 2 -4 22 3 25 20 9 19 -17 19 -17 14 2 -2 11
-16 25 -29 33 -17 9 -21 15 -12 20 7 4 17 5 23 2 5 -4 7 -2 2 2 -11 13 -40 15
-59 4z"/>
<path d="M610 2585 c0 -8 2 -15 4 -15 2 0 6 7 10 15 3 8 1 15 -4 15 -6 0 -10
-7 -10 -15z"/>
<path d="M5026 2564 c-9 -24 -7 -31 4 -14 8 11 9 8 6 -15 -2 -16 -5 -34 -5
-38 -1 -5 -7 -5 -13 -2 -7 4 -2 -3 12 -15 21 -18 22 -21 5 -15 -16 5 -18 4 -7
-6 17 -18 15 -101 -3 -135 -8 -16 -15 -37 -15 -46 0 -10 -4 -18 -9 -18 -5 0
-11 -10 -13 -22 -2 -16 -9 -22 -21 -20 -15 3 -18 -3 -15 -35 2 -26 8 -39 20
-41 21 -4 65 85 74 149 4 24 10 51 14 59 11 21 5 137 -9 188 -13 46 -16 50
-25 26z"/>
<path d="M585 2557 c-4 -10 -5 -21 -1 -24 10 -10 18 4 13 24 -4 17 -4 17 -12
0z"/>
<path d="M871 2534 c-13 -19 -30 -34 -39 -34 -12 0 -12 -3 -1 -16 11 -13 11
-15 -2 -14 -29 5 -35 -1 -37 -32 -1 -23 1 -29 7 -19 5 7 14 10 20 7 6 -4 11
-2 11 4 0 6 4 9 8 6 4 -2 9 7 10 22 2 28 32 68 32 43 0 -11 3 -11 14 -2 12 10
13 57 3 68 -1 1 -13 -14 -26 -33z"/>
<path d="M770 2530 c0 -5 18 -10 40 -10 22 0 40 5 40 10 0 6 -18 10 -40 10
-22 0 -40 -4 -40 -10z"/>
<path d="M699 2523 c0 -4 -3 -21 -5 -36 -3 -16 0 -35 6 -42 7 -8 9 -19 5 -25
-3 -5 -1 -10 5 -10 12 0 10 109 -2 117 -5 2 -8 1 -9 -4z"/>
<path d="M1010 2519 c0 -5 5 -7 10 -4 6 3 10 8 10 11 0 2 -4 4 -10 4 -5 0 -10
-5 -10 -11z"/>
<path d="M604 2489 c0 -20 11 -25 20 -10 3 5 0 13 -7 19 -10 8 -13 6 -13 -9z"/>
<path d="M536 2418 l-36 -42 -52 22 c-30 13 -56 18 -61 13 -5 -5 18 -17 55
-29 l63 -21 40 26 40 26 -25 -29 c-20 -23 -17 -22 13 5 36 34 47 48 27 36 -5
-3 -10 -2 -10 4 0 5 8 15 18 20 15 9 13 10 -10 11 -19 0 -37 -12 -62 -42z"/>
<path d="M730 2450 c0 -5 5 -10 11 -10 5 0 7 5 4 10 -3 6 -8 10 -11 10 -2 0
-4 -4 -4 -10z"/>
<path d="M290 2358 c-28 -31 -26 -63 4 -64 21 -2 24 2 24 42 1 24 -1 44 -3 44
-2 0 -13 -10 -25 -22z"/>
<path d="M330 2371 c0 -5 5 -13 10 -16 6 -3 10 -2 10 4 0 5 -4 13 -10 16 -5 3
-10 2 -10 -4z"/>
<path d="M4951 2344 c0 -11 3 -14 6 -6 3 7 2 16 -1 19 -3 4 -6 -2 -5 -13z"/>
<path d="M1132 2334 c10 -10 20 -16 22 -13 3 3 -5 11 -17 18 -21 13 -21 12 -5
-5z"/>
<path d="M975 2250 c-16 -7 -17 -9 -3 -9 9 -1 20 4 23 9 7 11 7 11 -20 0z"/>
<path d="M779 2233 c-8 -9 -14 -28 -14 -42 0 -15 -5 -25 -12 -23 -17 3 -16
-18 0 -40 15 -19 24 -15 55 26 26 34 29 81 6 90 -21 8 -20 8 -35 -11z"/>
<path d="M280 2169 c0 -5 5 -7 10 -4 6 3 10 8 10 11 0 2 -4 4 -10 4 -5 0 -10
-5 -10 -11z"/>
<path d="M450 2085 c-11 -13 -10 -14 6 -8 15 6 15 2 -6 -27 -21 -30 -24 -31
-31 -14 -6 17 -8 15 -14 -9 -4 -15 -5 -44 -2 -63 6 -33 5 -34 -34 -40 -24 -4
-39 -12 -39 -21 0 -10 6 -12 23 -7 36 11 80 35 106 58 13 11 20 14 16 6 -5 -9
1 -7 15 5 12 11 30 38 40 59 15 36 15 42 1 58 -19 22 -64 24 -81 3z"/>
<path d="M150 1970 c0 -5 9 -10 20 -10 11 0 20 5 20 10 0 6 -9 10 -20 10 -11
0 -20 -4 -20 -10z"/>
<path d="M895 1800 c3 -5 8 -10 11 -10 2 0 4 5 4 10 0 6 -5 10 -11 10 -5 0 -7
-4 -4 -10z"/>
<path d="M966 1795 c-8 -8 -20 -15 -26 -15 -6 0 -8 -5 -5 -10 4 -6 12 -7 18
-3 7 4 6 -1 -2 -10 -13 -16 -14 -16 -27 0 -10 15 -15 16 -26 5 -11 -11 -10
-12 3 -7 17 6 18 -8 5 -57 -8 -29 9 -72 25 -63 5 4 9 2 9 -3 0 -5 11 -7 25 -4
29 5 89 73 99 112 6 19 5 21 -3 10 -9 -13 -11 -12 -11 4 0 12 -5 16 -16 12
-10 -4 -18 0 -21 13 -3 13 -10 18 -21 14 -10 -4 -13 -2 -8 5 10 17 0 15 -18
-3z"/>
<path d="M577 1712 c-37 -23 -71 -94 -64 -132 6 -26 3 -30 -31 -41 -44 -14
-70 -34 -32 -26 74 17 121 35 140 52 51 46 78 146 44 159 -22 8 -25 8 -57 -12z
m3 -26 c0 -2 -8 -10 -17 -17 -16 -13 -17 -12 -4 4 13 16 21 21 21 13z"/>
<path d="M841 1701 c-10 -6 -10 -10 -1 -16 13 -8 24 -1 19 14 -3 6 -10 7 -18
2z"/>
<path d="M830 1653 c0 -5 5 -15 10 -23 8 -13 10 -12 10 4 0 18 2 18 25 -4 21
-20 25 -21 25 -6 0 9 -4 14 -10 11 -5 -3 -10 1 -10 9 0 10 -9 16 -25 16 -14 0
-25 -3 -25 -7z"/>
<path d="M195 1520 c-4 -11 -3 -35 0 -52 l7 -32 14 25 c17 31 17 47 0 65 -13
12 -15 11 -21 -6z"/>
<path d="M1033 1475 c0 -8 4 -15 9 -15 4 0 8 4 8 9 0 6 -4 12 -8 15 -5 3 -9
-1 -9 -9z"/>
<path d="M930 1449 c0 -21 1 -22 24 -13 23 9 20 29 -4 31 -14 1 -20 -4 -20
-18z"/>
<path d="M138 1392 c-10 -2 -18 -8 -18 -14 0 -11 49 -2 64 12 9 9 -10 10 -46
2z"/>
<path d="M751 1274 c0 -11 3 -14 6 -6 3 7 2 16 -1 19 -3 4 -6 -2 -5 -13z"/>
<path d="M653 1243 c4 -4 -6 -12 -23 -20 -24 -9 -38 -28 -60 -76 -16 -36 -43
-76 -61 -91 -17 -15 -29 -30 -25 -33 3 -4 19 6 35 21 21 20 35 26 50 21 11 -3
33 0 48 8 19 10 36 12 51 6 14 -5 22 -5 22 2 0 6 5 7 12 3 8 -5 9 0 5 15 -4
18 -2 21 10 17 13 -5 14 -4 4 8 -14 16 1 31 22 21 6 -3 2 2 -10 11 -13 9 -23
21 -23 26 0 16 -40 68 -52 68 -6 0 -8 -3 -5 -7z m-23 -51 c0 -15 -28 -47 -35
-40 -8 8 13 48 25 48 6 0 10 -4 10 -8z"/>
<path d="M780 1239 c0 -5 5 -7 10 -4 6 3 10 8 10 11 0 2 -4 4 -10 4 -5 0 -10
-5 -10 -11z"/>
<path d="M311 1063 c-1 -7 -10 -13 -21 -13 -16 0 -20 -7 -20 -32 0 -43 31 -93
48 -76 14 14 15 83 2 113 -5 11 -9 14 -9 8z"/>
<path d="M711 1054 c0 -11 3 -14 6 -6 3 7 2 16 -1 19 -3 4 -6 -2 -5 -13z"/>
<path d="M193 1010 c3 -10 0 -21 -7 -24 -7 -3 -7 -5 2 -5 6 -1 12 -10 12 -21
0 -19 1 -19 18 -2 10 9 14 20 9 23 -5 4 -6 17 -3 30 3 13 3 18 0 12 -3 -7 -10
-13 -15 -13 -6 0 -7 5 -4 10 3 6 1 10 -6 10 -6 0 -9 -8 -6 -20z"/>
<path d="M815 1021 c-3 -5 -2 -12 3 -15 5 -3 9 1 9 9 0 17 -3 19 -12 6z"/>
<path d="M873 1006 c-41 -19 -27 -29 55 -39 20 -2 32 1 32 9 0 6 -8 11 -17 10
-11 0 -18 6 -17 14 1 19 -22 21 -53 6z m37 -6 c0 -5 -2 -10 -4 -10 -3 0 -8 5
-11 10 -3 6 -1 10 4 10 6 0 11 -4 11 -10z"/>
<path d="M846 955 c7 -18 40 -20 50 -3 5 8 0 9 -14 6 -12 -4 -22 -2 -22 3 0 5
-4 9 -10 9 -5 0 -7 -7 -4 -15z"/>
<path d="M936 929 c4 -6 1 -15 -6 -19 -9 -6 -7 -11 10 -20 18 -10 25 -9 38 4
15 15 15 16 -1 16 -9 0 -17 -5 -17 -11 0 -5 -5 -7 -10 -4 -8 5 -8 11 0 20 8 9
6 14 -5 19 -10 4 -14 2 -9 -5z"/>
<path d="M190 915 c0 -8 4 -15 10 -15 5 0 7 7 4 15 -4 8 -8 15 -10 15 -2 0 -4
-7 -4 -15z"/>
<path d="M245 921 c3 -5 -1 -11 -7 -14 -7 -2 -10 -8 -5 -13 4 -4 14 -1 23 8
14 14 14 16 -1 22 -9 3 -14 2 -10 -3z"/>
<path d="M3586 835 c4 -8 8 -15 10 -15 2 0 4 7 4 15 0 8 -4 15 -10 15 -5 0 -7
-7 -4 -15z"/>
<path d="M3616 805 c11 -45 5 -105 -11 -122 -8 -8 -15 -21 -15 -28 0 -18 -75
-69 -131 -91 -24 -9 -57 -22 -74 -30 -28 -12 -212 -72 -245 -79 -8 -2 -49 -11
-90 -19 -41 -9 -82 -19 -90 -23 -8 -3 -19 -7 -25 -8 -5 0 -23 -4 -40 -9 -93
-23 -163 -39 -188 -42 -16 -2 -32 -6 -37 -9 -4 -3 -25 -7 -45 -11 -21 -3 -45
-8 -54 -10 -9 -2 -74 -16 -146 -31 -71 -15 -132 -28 -134 -30 -14 -10 13 -11
65 -3 32 5 81 12 108 15 27 3 53 8 59 12 6 4 23 8 37 9 14 1 70 11 125 23 55
12 109 24 120 25 11 2 61 13 110 25 50 11 101 22 115 25 14 2 49 11 78 19 28
9 52 13 52 10 0 -3 12 2 26 12 17 11 24 12 18 4 -5 -9 2 -8 19 4 15 9 27 15
27 12 0 -3 14 2 31 11 17 8 45 17 63 19 17 2 33 4 36 5 3 1 8 2 13 1 4 0 7 4
7 10 0 6 7 9 15 5 8 -3 15 -1 15 5 0 6 4 8 9 4 5 -3 13 0 17 6 6 10 69 42 85
43 19 2 69 51 64 63 -2 8 -1 12 3 9 4 -2 14 -1 22 5 8 5 10 9 4 9 -13 0 -11
38 3 66 12 25 9 41 -18 99 -7 15 -8 13 -3 -10z"/>
<path d="M867 766 c-33 -31 -39 -98 -9 -115 11 -7 13 -10 3 -11 -9 0 -10 -4
-3 -12 6 -9 6 -28 -2 -59 -15 -55 -11 -72 12 -59 9 5 33 11 53 15 49 7 83 44
70 76 -6 17 -5 37 4 61 23 68 -2 114 -66 124 -27 5 -40 1 -62 -20z m107 -169
c-3 -9 -14 -18 -23 -18 -9 -1 -28 -3 -43 -5 -16 -1 -28 -1 -28 1 0 35 65 73
88 51 7 -7 10 -20 6 -29z"/>
<path d="M1160 740 c0 -13 5 -18 15 -14 8 4 15 12 15 20 0 8 -7 14 -15 14 -8
0 -15 -9 -15 -20z"/>
<path d="M536 662 c-36 -41 -30 -142 10 -142 12 0 11 -7 -7 -41 -14 -28 -16
-40 -7 -37 7 3 15 13 17 24 2 10 12 30 22 43 11 13 19 32 19 41 0 20 23 43 33
33 4 -3 7 -1 7 6 0 6 -17 30 -38 52 -37 40 -38 40 -56 21z"/>
<path d="M1110 611 c0 -6 4 -13 10 -16 6 -3 7 1 4 9 -7 18 -14 21 -14 7z"/>
<path d="M823 598 c-12 -20 -12 -36 0 -41 7 -3 13 7 14 24 2 31 -1 36 -14 17z"/>
<path d="M1140 580 c0 -5 5 -10 11 -10 5 0 7 5 4 10 -3 6 -8 10 -11 10 -2 0
-4 -4 -4 -10z"/>
<path d="M1130 550 c0 -6 7 -10 15 -10 8 0 15 2 15 4 0 2 -7 6 -15 10 -8 3
-15 1 -15 -4z"/>
<path d="M1381 464 c0 -11 3 -14 6 -6 3 7 2 16 -1 19 -3 4 -6 -2 -5 -13z"/>
<path d="M1000 250 c8 -5 22 -10 30 -10 13 0 13 1 0 10 -8 5 -22 10 -30 10
-13 0 -13 -1 0 -10z"/>
<path d="M2150 244 l-75 -13 75 5 c41 3 85 5 97 5 12 -1 25 4 28 9 8 13 -28
11 -125 -6z"/>
<path d="M1940 220 c-13 -8 -12 -10 3 -10 9 0 17 5 17 10 0 12 -1 12 -20 0z"/>
<path d="M1993 223 c15 -2 39 -2 55 0 15 2 2 4 -28 4 -30 0 -43 -2 -27 -4z"/>
<path d="M1858 213 c12 -2 32 -2 45 0 12 2 2 4 -23 4 -25 0 -35 -2 -22 -4z"/>
</g>
</svg>
